<?xml version="1.0" encoding="UTF-8"?>
<svg width="19px" height="20px" viewBox="0 0 19 20" version="1.1" xmlns="http://www.w3.org/2000/svg" xmlns:xlink="http://www.w3.org/1999/xlink">
    <!-- Generator: Sketch 57.1 (83088) - https://sketch.com -->
    <title>smiley-face-icon</title>
    <desc>Created with Sketch.</desc>
    <g id="Page-1" stroke="none" stroke-width="1" fill="none" fill-rule="evenodd">
        <g id="Convo-Resumed" transform="translate(-351.000000, -698.000000)" fill="#929292" fill-rule="nonzero">
            <g id="smiley-face-icon" transform="translate(351.000000, 698.748251)">
                <path d="M9.5,0 C14.7467054,0 19,4.25329462 19,9.5 C19,14.7467054 14.7467054,19 9.5,19 C4.25329462,19 0,14.7467054 0,9.5 C0,4.25329462 4.25329462,0 9.5,0 Z M9.5,0.76 C4.67303108,0.76 0.76,4.67303108 0.76,9.5 C0.76,14.3269689 4.67303108,18.24 9.5,18.24 C14.3269689,18.24 18.24,14.3269689 18.24,9.5 C18.24,4.67303108 14.3269689,0.76 9.5,0.76 Z M6.08,7.6 C6.49973645,7.6 6.84,7.25973645 6.84,6.84 C6.84,6.42026355 6.49973645,6.08 6.08,6.08 C5.66026355,6.08 5.32,6.42026355 5.32,6.84 C5.32,7.25973645 5.66026355,7.6 6.08,7.6 L6.08,7.6 Z M12.92,7.6 C13.3397364,7.6 13.68,7.25973645 13.68,6.84 C13.68,6.42026355 13.3397364,6.08 12.92,6.08 C12.5002636,6.08 12.16,6.42026355 12.16,6.84 C12.16,7.25973645 12.5002636,7.6 12.92,7.6 L12.92,7.6 Z M9.48580563,13.68 C6.84,13.68 5.32,12.16 5.32,12.16 L5.32,12.92 C5.32,12.92 6.84,14.44 9.48580563,14.44 C12.1316113,14.44 13.68,12.92 13.68,12.92 L13.68,12.16 C13.68,12.16 12.1316113,13.68 9.48580563,13.68 L9.48580563,13.68 Z" id="smiling-face"></path>
            </g>
        </g>
    </g>
</svg>