<?xml version="1.0" encoding="UTF-8"?>
<svg width="17px" height="20px" viewBox="0 0 17 20" version="1.1" xmlns="http://www.w3.org/2000/svg" xmlns:xlink="http://www.w3.org/1999/xlink">
    <!-- Generator: Sketch 57.1 (83088) - https://sketch.com -->
    <title>paperclip-icon</title>
    <desc>Created with Sketch.</desc>
    <g id="Page-1" stroke="none" stroke-width="1" fill="none" fill-rule="evenodd">
        <g id="Convo-Resumed" transform="translate(-382.000000, -698.000000)" fill="#929292" fill-rule="nonzero">
            <g id="Chat-DIalog-Box" transform="translate(-465.000000, -38.000000)">
                <g id="Footer-Link" transform="translate(512.000000, 690.000000)">
                    <g id="paperclip-icon" transform="translate(343.000000, 56.248251) rotate(-5.000000) translate(-343.000000, -56.248251) translate(334.000000, 46.748251)">
                        <path d="M15.3093668,9.62647661 L7.67019708,16.9569931 C6.26564421,18.3047963 3.98447157,18.301013 2.58144482,16.9546742 L2.58144482,16.9546742 C1.17555737,15.6055902 1.17223024,13.4214857 2.58545045,12.0653653 L13.0786798,1.99610486 C13.9591824,1.15117812 15.3791554,1.14388158 16.263961,1.9929375 L16.263961,1.9929375 C17.1426407,2.83611495 17.1433699,4.2024759 16.268686,5.04181901 L5.75820882,15.1276305 C5.40961794,15.4621369 4.84455537,15.4622472 4.49063312,15.1226247 L4.49063312,15.1226247 C4.13916126,14.7853538 4.13901755,14.2386674 4.48968002,13.9021731 L12.1273863,6.57306097 L11.4909903,5.96237782 L3.85796545,13.2869976 C3.15296257,13.9635155 3.1463925,15.0540632 3.85423702,15.7333079 L3.85423702,15.7333079 C4.55718078,16.4078499 5.69321424,16.4113653 6.39419247,15.7387094 L16.901553,5.65588874 C18.1310441,4.47607406 18.1280056,2.56030083 16.9003571,1.38225437 L16.9003571,1.38225437 C15.6702056,0.201805944 13.6777352,0.19988754 12.4440148,1.38376061 L1.94443616,11.4591138 C0.187415145,13.145144 0.191265273,15.8824338 1.94504872,17.5653573 L1.94504872,17.5653573 C3.70240802,19.2517122 6.5525148,19.2508827 8.31449142,17.5600971 L15.945763,10.2371598 L15.3093668,9.62647661 L15.3093668,9.62647661 Z" id="paperclip"></path>
                    </g>
                </g>
            </g>
        </g>
    </g>
</svg>