<?xml version="1.0" encoding="UTF-8"?>
<svg width="180px" height="180px" viewBox="0 0 180 180" version="1.1" xmlns="http://www.w3.org/2000/svg" xmlns:xlink="http://www.w3.org/1999/xlink">
    <!-- Generator: Sketch 57.1 (83088) - https://sketch.com -->
    <title>path0</title>
    <desc>Created with Sketch.</desc>
    <g id="Page-1" stroke="none" stroke-width="1" fill="none" fill-rule="evenodd" opacity="0.0942615327">
        <g id="Initiate-Convo" transform="translate(-47.000000, -23.000000)" fill="#FFFFFF">
            <g id="Chat-DIalog-Box" transform="translate(-465.000000, -38.000000)">
                <g id="imagetoVector" transform="translate(512.000000, 61.000000)">
                    <path d="M0.01575,1.2276808 L0.0315,2.45581047 L0.0783,1.44269327 C0.1332,0.250922693 0.12285,0.268877805 0.639,0.496458853 C1.46745,0.862294264 1.8405,1.15810474 1.78245,1.40274314 C1.6866,1.8080798 0.8118,3.43256858 0.40365,3.9640399 L0,4.48877805 L0,11.9082793 L0,19.3273317 L10.45215,19.2869327 C23.8788,19.2348628 22.99815,19.3484289 24.7257,17.4424938 C25.9587,16.0828429 26.38395,15.0050873 26.40285,13.1938653 C26.41815,11.7309726 26.19405,11.2367581 22.77675,5.19620948 C21.8682,3.59012469 21.01905,2.06034913 20.88945,1.79640898 L20.65365,1.3165586 L20.90385,1.1163591 C22.05765,0.193017456 24.0237,-0.202892768 24.99975,0.290872818 C25.48125,0.534613466 25.5996,0.544937656 25.85475,0.367182045 C26.21115,0.118054863 29.3967,0.0897755611 57.3714,0.0866334165 C84.91185,0.0834912718 91.21005,0.118503741 91.21005,0.273366584 C91.21005,0.465037406 89.3223,2.93970075 87.7131,4.85775561 L86.7456,6.01092269 L86.24475,5.96154613 C85.96935,5.93461347 85.47975,5.88837905 85.1571,5.859202 L84.56985,5.80623441 L83.78865,6.62812968 C81.7389,8.78543641 81.06165,10.087182 81.5544,10.9234414 C81.79065,11.3242893 82.47915,12.06 83.2734,12.7606983 L83.80665,13.2311222 L83.44035,13.6979551 C79.8453,18.2778554 79.8264,18.3097257 79.87815,19.7874314 C79.9452,21.724788 79.9191,21.6987531 88.9569,28.9000998 C96.56505,34.9626434 96.56415,34.9621945 97.92,34.9600345 C99.79065,34.9572569 100.0467,34.7889277 102.43845,31.9991521 C104.5971,29.4800499 104.391,29.5886783 105.4899,30.3939651 C107.42805,31.8146633 108.55485,31.4371571 110.50785,28.7133666 C111.31605,27.5853367 111.5604,26.3877307 111.10905,25.7633416 C111.0429,25.6717706 110.92905,25.5151122 110.8566,25.4154613 C110.6622,25.1479302 111.1932,24.4158105 115.4871,19.0355611 L117.5751,16.4190524 L118.3212,16.383591 C120.26745,16.2906733 121.1139,14.3497257 119.74635,13.1171072 C119.20815,12.6323192 118.2753,12.6107731 117.5544,13.0672818 C116.9496,13.4497257 116.8857,13.6041397 116.83215,14.8071322 C116.79075,15.7461845 116.7624,15.8970075 116.5653,16.2318703 C115.9236,17.3212968 111.0717,23.396409 110.1186,24.303591 L109.81575,24.5922195 L109.42965,24.2066334 L109.0431,23.8214963 L109.4472,23.2523192 C109.6695,22.9394514 110.18115,22.246384 110.5839,21.7122195 C113.09265,18.3837905 113.01525,17.0281796 110.17755,14.5961596 C107.71335,12.4846384 99.67635,6.12359102 97.22835,4.34738155 C94.1976,2.14877805 92.83995,2.28568579 90.4122,5.0359601 C88.52175,7.17755611 88.2054,7.43835411 87.84135,7.15286783 C87.3108,6.73586035 87.64875,6.18104738 90.89145,2.14563591 C91.8009,1.01356608 92.5452,0.0677805486 92.5452,0.0435411471 C92.5452,0.0197506234 75.6747,0.00493765586 55.0557,0.0107730673 C34.43625,0.016159601 17.802,0.0516209476 18.09045,0.0888778055 C18.91755,0.196159601 18.88965,0.171022444 19.72305,1.56658354 C21.8079,5.05795511 24.75675,10.293217 25.1208,11.1483292 C26.36055,14.0642394 25.33545,16.6623441 22.34115,18.194813 L21.44205,18.6549127 L11.32605,18.6252868 C0.0837,18.5925187 0.3366,18.6050873 0.1863,18.0722693 C0.15255,17.9528678 0.1251,15.2142643 0.1251,11.9868329 L0.1251,6.11820449 L1.49445,3.78763092 C3.45735,0.447082294 3.6441,0.193915212 4.23315,0.0799002494 C4.4064,0.0466832918 3.52485,0.0148129676 2.27385,0.00942643392 L0,0 L0.01575,1.2276808 M5.31315,0.0749625935 C5.5962,0.10234414 5.85045,0.147680798 5.87835,0.175511222 C5.9562,0.253167082 5.51565,1.17830424 4.29705,3.49630923 C2.0304,7.80778055 1.93905,8.28538653 3.141,9.5157606 C3.82815,10.2191521 3.9564,10.2290274 12.5046,10.234414 L18.79245,10.2384539 L19.1808,9.81201995 C20.6001,8.2517207 20.5398,7.89396509 18.0675,3.199601 C16.94565,1.06967581 16.5231,0.226683292 16.5231,0.120299252 C16.5231,0.105935162 16.62615,0.078553616 16.7526,0.0597007481 C16.8786,0.0403990025 14.2407,0.0251371571 10.89,0.0251371571 C7.53975,0.0251371571 5.0301,0.0475810474 5.31315,0.0749625935 M125.46585,0.0893266833 C135.7218,0.139600998 136.77345,0.163391521 136.77345,0.342942643 C136.77345,0.457406484 135.21105,4.81107232 133.31205,9.98887781 C131.3694,15.2869825 130.18095,18.7370574 130.18095,19.0791022 C130.18095,19.3609975 129.8655,19.223192 134.22825,20.8503741 C146.60775,25.4684289 153.29025,27.7586035 153.57015,27.4794015 C153.65835,27.3914214 153.6741,27.4165586 151.4448,24.0396509 C149.60565,21.2530175 148.95945,20.1532668 148.96035,19.8112219 C148.9608,19.5840898 149.22495,19.0692269 151.35165,15.1500748 C152.1342,13.7078304 153.96705,10.2990524 155.4246,7.57481297 C158.6574,1.53291771 159.33015,0.3559601 159.62715,0.223092269 C159.8706,0.11446384 175.01445,0.0260349127 176.1426,0.127032419 C176.6214,0.16967581 176.8032,0.225785536 177.0012,0.391870324 L177.2523,0.602842893 L177.7446,0.38244389 C178.0155,0.260798005 178.4556,0.130174564 178.722,0.0911221945 C178.99965,0.050723192 173.6352,0.0224438903 166.18905,0.025347904 C159.0291,0.0287281796 154.20375,0.0565586035 155.466,0.0875311721 C156.72825,0.118952618 157.88295,0.149027431 158.0319,0.155311721 C158.52375,0.175511222 158.70555,-0.191221945 152.26425,11.762394 L147.7872,20.0697756 L149.35995,22.3756608 C151.12485,24.9629925 151.87275,26.1031421 151.90065,26.2476808 C151.94205,26.4631421 151.38675,26.2759601 144.7011,23.8232918 C142.70445,23.0907232 139.43745,21.8917706 137.4408,21.1596509 C132.05025,19.1818953 131.1822,18.8196509 131.1822,18.5512219 C131.1822,18.1683292 136.1988,4.48967581 137.5884,1.08359102 L137.9106,0.294014963 L138.28095,0.22713217 C138.48435,0.19032419 140.13405,0.130174564 141.9471,0.0933665835 C144.1386,0.0493765586 140.11155,0.0287281796 129.9303,0.0314214464 L114.6177,0.0359102244 L125.46585,0.0893266833 M2.62845,0.24957606 C2.62845,0.407581047 2.2833,0.461446384 2.12355,0.329027431 C1.91745,0.158453865 1.9899,0.0722693267 2.3157,0.099201995 C2.52675,0.116259352 2.62845,0.16563591 2.62845,0.24957606 M15.1902,0.167880299 C15.5673,0.368977556 17.2557,3.1753616 18.39465,5.49381546 C19.5012,7.74673317 19.5507,8.22074813 18.76275,9.03905237 L18.24885,9.57276808 L14.2776,9.5642394 C12.0933,9.55930175 8.9514,9.53147132 7.2954,9.50184539 L4.28535,9.44798005 L3.98565,9.24329177 C3.3183,8.78678304 3.0618,8.08069825 3.2922,7.33421446 C3.59865,6.34219451 5.1975,3.33561097 6.53715,1.2317207 L7.21035,0.174164589 L7.59015,0.143640898 C8.532,0.0682294264 15.0417,0.0884289277 15.1902,0.167880299 M20.5128,0.228029925 C20.47815,0.406683292 20.22795,0.464139651 20.0664,0.330374065 C19.8972,0.19032419 19.9935,0.083042394 20.28915,0.083042394 C20.4831,0.083042394 20.5344,0.116259352 20.5128,0.228029925 M7.8291,3.65835411 C7.2747,3.83162095 6.92775,4.27466334 6.92684672,4.80972569 C6.92595,5.36094763 7.11,5.35780549 7.62795,4.79850374 C8.1522,4.23201995 8.1819,4.22932668 8.6499,4.70334165 C9.0693,5.12708229 9.13545,5.14862843 9.26775,4.90219451 C9.5958,4.29037406 8.5896,3.42089776 7.8291,3.65835411 M14.0409,3.63725686 C13.5981,3.72433915 13.1085,4.5121197 13.22055,4.95740648 C13.29795,5.26533666 13.4838,5.20608479 14.0103,4.70513716 L14.48955,4.24907731 L14.85945,4.62523691 C15.48225,5.25860349 15.97095,4.97042394 15.49395,4.25177057 C15.2046,3.81546135 14.5476,3.53760599 14.0409,3.63725686 M94.55355,3.71356608 C95.16105,3.89356608 95.9679,4.29216958 96.3351,4.59426434 C96.72435,4.91431421 96.71895,5.11182045 96.30045,5.86862843 C95.6124,7.11201995 95.88195,7.25476309 97.047,6.26408978 C97.3296,6.02349127 97.6005,5.82688279 97.6491,5.82688279 C97.80705,5.82688279 98.6706,6.32289277 99.00945,6.60837905 C99.38295,6.92304239 99.40365,6.84359102 98.7408,7.65516209 C98.35515,8.1282793 98.2332,8.44428928 98.35965,8.6440399 C98.5167,8.8927182 98.649,8.83346633 99.2034,8.26608479 C100.0449,7.40513716 99.95805,7.43162095 100.5246,7.86074813 C100.7946,8.06543641 101.15775,8.35765586 101.33145,8.50982544 L101.6478,8.78723192 L101.322,9.24239401 C100.2834,10.6945137 100.4544,11.0881796 101.664,10.0306234 C102.54555,9.25990025 102.45825,9.24688279 103.7178,10.3327182 L104.0679,10.6352618 L103.6125,11.2686284 C103.13955,11.9257855 102.9753,12.3517706 103.1337,12.5097756 C103.23405,12.6103242 103.338,12.5317706 104.19975,11.7076309 L104.71365,11.2156608 L104.99265,11.4100249 C105.71625,11.9150125 106.39215,12.5115711 106.3404,12.5991022 C106.3098,12.6516209 106.19955,12.8069327 106.0965,12.9447382 C105.85845,13.2607481 105.4818,14.0628928 105.48045,14.2550125 C105.4791,14.5342145 105.7356,14.396409 106.45065,13.7338653 L107.17065,13.0668329 L107.5563,13.3729676 C108.7812,14.3456858 108.79875,14.3932668 108.23715,15.2196509 C107.33085,16.5532668 107.7723,16.6879302 109.0395,15.4638404 L109.63665,14.8870324 L109.9935,15.2730673 C111.29625,16.6829925 111.85515,17.9380549 111.54105,18.7496259 C111.29805,19.3767082 108.82395,22.7051372 105.147,27.3501247 C99.7425,34.178005 98.8029,34.9536658 97.0245,34.053217 C95.9121,33.4898753 86.6655,26.272818 82.38105,22.6243392 C80.76015,21.243591 80.7372,21.2045387 80.7372,19.8112219 L80.7372,18.7707232 L81.04635,18.2230923 C81.4446,17.5170075 82.602,16.0020449 86.0355,11.6905736 C92.35215,3.7598005 92.9187,3.22922693 94.55355,3.71356608 M179.91675,5.38024938 C179.91675,5.50817955 179.487,6.34668329 178.88265,7.39885287 C176.72355,11.1573067 176.39775,12.0842394 176.58495,13.9412469 C176.7753,15.8346135 176.99535,16.2592519 178.6014,17.8343641 C179.29035,18.5099252 179.8866,19.0620449 179.9271,19.0620449 C179.96715,19.0620449 179.99325,18.6032918 179.98515,18.0426434 C179.9766,17.4815461 179.9559,17.2005486 179.9388,17.4182544 C179.9037,17.8617456 179.847,17.8873317 179.4483,17.6413466 C178.28685,16.9253865 177.5268,15.4346633 177.32025,13.4681297 C177.15465,11.8867332 177.1317,11.9594514 178.5204,9.64503741 C179.1918,8.52553616 179.7714,7.53665835 179.8083,7.44688279 C179.85735,7.32568579 179.8875,7.40199501 179.92395,7.74134663 C179.95095,7.9967581 179.97885,7.52812968 179.9865,6.6801995 C179.9937,5.84438903 179.9811,5.16074813 179.95815,5.16074813 C179.9352,5.16074813 179.91675,5.25950125 179.91675,5.38024938 M48.1959,5.91351621 C46.4193,6.1927182 45.63495,6.89566085 41.23575,12.1515711 C37.04445,17.158803 37.0458,17.1561097 37.29555,20.2318204 C37.4598,22.2535661 37.62765,22.4353616 45.78075,29.3997007 C48.1725,31.4425436 50.15385,33.1779052 50.18355,33.25601 C50.26095,33.4571072 50.0022,34.464389 49.3173,36.6261845 C48.3984,39.5250374 48.15675,40.5960599 48.38805,40.738803 C48.48075,40.7962594 49.51395,40.202394 51.8121,38.7718204 C54.75735,36.9377057 54.59985,36.9857357 55.5723,37.62 C57.1536,38.6515212 58.2867,39.0029925 59.7915,38.9280299 C62.3772,38.7996509 62.9136,38.3718703 67.8024,32.539601 C71.7165,27.8703741 71.6827549,27.933217 71.6827549,25.2556608 C71.6827549,22.5538653 71.6346,22.4950623 64.46475,16.475611 C55.6731,9.09471322 52.86735,6.8076808 52.07535,6.37765586 C51.2658,5.93820449 49.43385,5.71915212 48.1959,5.91351621 M50.6952,6.67571072 C52.2117,7.17216958 53.71875,8.34329177 63.2547,16.4334165 C68.35725,20.762394 69.93585,22.224389 70.40925,23.0579551 C71.478,24.9400998 71.3079,26.7266334 69.8661,28.759601 C69.0084,29.9697756 65.30535,34.3669825 63.8388,35.9174065 C61.092,38.8207481 59.0967,39.0303741 55.764,36.7653367 C54.56475,35.9501746 54.96435,35.8590524 52.1559,37.5858853 C50.2326,38.7686783 49.6071,39.1062344 49.5135,39.012419 C49.45725,38.9567581 49.8789,37.4956608 50.6952,34.9195511 C50.89815,34.2785536 51.06555,33.5967082 51.06735,33.4041397 C51.0714,32.9907232 51.36525,33.2672319 46.0638,28.6891272 C38.7045,22.3330175 38.50785,22.1341646 38.13075,20.6640898 C37.5525,18.4084788 38.01555,17.184389 40.6683,13.9574065 C46.44855,6.92618454 48.00555,5.79546135 50.6952,6.67571072 M85.93335,6.86379052 C86.6079,7.18608479 87.4026,7.70498753 87.68115,8.00483791 L87.8661,8.20369077 L86.607,9.78329177 C85.9149,10.6518703 85.13865,11.6057357 84.8826,11.9033416 C84.62655,12.2009476 84.40425,12.4617456 84.38895,12.482394 C84.25845,12.6579052 82.6245,11.2470823 82.3608,10.7313217 C82.01475,10.054414 82.3554,9.30658354 83.736,7.71127182 C84.7413,6.54957606 85.0374,6.4355611 85.93335,6.86379052 M91.91925,9.9323192 C91.0143,10.3457357 91.2933,10.6132668 92.63025,10.6132668 L93.75525,10.6132668 L94.3749,10.9436409 C95.5548,11.5720698 96.1992,12.4159601 96.43365,13.6391521 C96.687,14.9606484 96.95835,15.3547631 97.0992,14.6060349 C97.56585,12.1246384 95.6835,9.98394015 92.9205,9.85331671 C92.39445,9.82862843 92.09475,9.85197007 91.91925,9.9323192 M92.1699,12.100399 C90.42885,12.9155611 90.38115,15.1891272 92.0862,16.0886783 C93.15945,16.6547132 94.8888,15.8606484 95.1327,14.6895262 C95.526,12.7988529 93.8349,11.3206983 92.1699,12.100399 M5.88285,12.8199501 C5.6538,13.1893766 7.3674,14.6549626 8.8416,15.3498254 L9.3879,15.6079302 L10.80675,15.5998504 C13.30425,15.586384 15.2712,14.8210474 16.47405,13.3949626 C17.1945,12.541197 16.46055,12.5645387 15.2748,13.434015 C12.5496,15.4315212 10.1871,15.4584539 7.37685,13.5251372 C6.28245,12.7723691 5.9958,12.6372569 5.88285,12.8199501 M93.7089,12.8998504 C94.9833,13.5484788 94.35105,15.5661845 92.87325,15.5661845 C92.07135,15.5661845 91.4058,14.6383541 91.62495,13.8258853 C91.87515,12.9002993 92.85435,12.4653367 93.7089,12.8998504 M119.29905,13.7742643 C119.80215,14.1028429 119.81205,14.6284788 119.3256,15.1792519 C118.719,15.8669327 118.1754,15.858404 117.6957,15.1541147 C116.99055,14.1190025 118.215,13.0654863 119.29905,13.7742643 M100.3617,16.6843392 C99.08325,17.0272818 99.6057,17.3980549 101.349,17.3859352 C103.3479,17.3715711 104.6997,18.6167581 104.931,20.6856359 C105.066,21.8895262 105.53265,22.0147631 105.62445,20.8719202 C105.84045,18.1876309 103.0464,15.9643392 100.3617,16.6843392 M88.91685,18.7873317 C87.9561,19.9490274 87.8319,21.6498254 88.6329,22.6674314 C89.2044,23.392818 91.7451,25.4836908 93.4443,26.6265337 C94.9392,27.6324688 96.1407,27.4574065 97.71345,26.0048379 C98.27955,25.4818953 98.37045,25.2951621 98.1918,25.0231421 C98.0145,24.7529177 92.8872,20.5850873 90.5193,18.7864339 C89.5806,18.0731671 89.50725,18.0731671 88.91685,18.7873317 M100.8369,18.6535661 C99.33525,19.0876309 98.7354,21.3154115 99.8559,22.2993516 C101.87055,24.0679302 104.54355,22.0394514 103.32135,19.6693766 C102.87405,18.8016958 101.8179,18.3698753 100.8369,18.6535661 M90.4914,19.7636409 C91.4472,20.4010474 96.1353,24.12 96.99705,24.924389 C97.86375,25.732818 95.67855,26.878803 94.4307,26.2701247 C93.49245,25.8122693 91.17585,24.07601 89.94915,22.9116209 C88.90785,21.923192 88.6473,21.0456359 89.08515,19.9993017 C89.43345,19.1661845 89.5635,19.1446384 90.4914,19.7636409 M102.21075,19.6195511 C103.14045,20.3570574 103.0581,21.5048379 102.03885,22.0116209 C101.4435,22.3074314 101.01465,22.2962095 100.6236,21.9752618 C99.2466,20.8427431 100.8162,18.5130673 102.21075,19.6195511 M109.3878,25.2026933 C110.2437,26.066783 110.59155,26.5933167 110.5254,26.9259352 C110.27295,28.2038903 108.26235,30.4662344 107.37945,30.4662344 C106.94115,30.4662344 105.6555,29.6456858 105.33915,29.1640399 C105.13215,28.8493766 105.5322,28.1545137 107.00955,26.2624938 C108.56205,24.274414 108.4968,24.3031421 109.3878,25.2026933 M88.6599,24.9804988 C88.58655,25.0985536 89.6436,26.1296259 90.47745,26.754015 C91.5183,27.5332668 92.0754,27.4277805 91.2906,26.6000499 C90.3042,25.5595511 88.85385,24.667182 88.6599,24.9804988 M20.1015,29.4104738 C17.8974,30.2332668 18.16425,33.7538155 20.4633,34.1730673 C21.1239,34.2933666 21.29355,34.6354115 21.91635,37.1001995 L22.31865,38.6919202 L21.6378,39.3989027 C20.85435,40.2131671 20.6667,40.5363591 20.4921,41.3730673 C20.3301,42.1469327 20.2536,42.2551122 19.4238,42.8799501 C17.3043,44.4766085 16.13655,45.6804988 14.6205,47.832419 C13.86675,48.9025436 13.67955,49.0542643 12.7881,49.32 L12.0582,49.5372569 L11.2239,50.3932668 L10.3896,51.2492768 L8.9289,50.9305736 C8.12565,50.7550623 7.12755,50.5351122 6.71085,50.4408479 L5.95305,50.2702743 L5.80365,49.7953616 C5.03235,47.3413466 2.277,46.9458853 1.1592,49.1292269 C-0.12645,51.641596 2.9781,53.7145137 5.17905,51.8130673 C5.958,51.1401995 6.4683,51.116409 8.6652,51.6505736 C10.15425,52.0123691 10.39005,52.1371571 10.51155,52.6255362 C10.70955,53.4236409 10.7721,53.5892768 11.01375,53.9533167 C11.15235,54.1620449 11.56365,54.6010474 11.92815,54.9291771 C12.6423,55.5728678 12.8115,55.8781047 13.0158,56.8952618 C14.08725,62.2297257 17.55135,66.3064339 22.4172,67.9587531 C24.8589,68.7882793 28.69965,68.8205985 31.0014,68.0314713 C33.91425,67.0322693 36.2628,65.3449377 38.0682,62.9542145 C40.0941,60.2717207 40.6233,58.3985536 40.53105,54.2379052 C40.43295,49.8326185 39.65805,48.1057855 36.3213,44.856808 C33.71085,42.3157107 32.09985,41.5202993 28.41435,40.9542643 C27.0027,40.7374564 26.72595,40.6256858 26.00865,39.9851372 C25.2432,39.3019451 24.70095,38.9913217 23.9364,38.7987531 C23.157,38.6021446 23.16645,38.6183042 22.5792,36.4636908 C21.9177,34.0370574 21.92535,34.3104239 22.50315,33.6815461 C23.42115,32.6823441 23.6367,31.8097257 23.20605,30.8365586 C22.6989,29.6910224 21.19815,29.0015461 20.1015,29.4104738 M21.6036,30.2117207 C22.96665,30.9052369 23.049,32.5355611 21.753,33.1680299 C20.9448,33.5625935 20.41335,33.4993017 19.7901,32.9332668 C18.45765,31.7230923 20.00655,29.398803 21.6036,30.2117207 M151.34535,35.2517207 C149.64885,35.6036409 147.99375,36.393217 148.05495,36.8214464 C148.0932,37.087182 148.4649,37.0270324 149.5602,36.576808 C151.81515,35.6494264 153.1494,35.6153117 155.6523,36.4210474 C156.99105,36.8519701 157.31325,36.7621945 156.69675,36.1297257 C155.9313,35.3437406 153.12285,34.883192 151.34535,35.2517207 M152.02395,37.1293766 C150.6105,37.2936658 149.52105,37.9045885 149.8374,38.3552618 C149.95935,38.5285287 149.95935,38.5285287 150.93945,38.185586 C152.2152,37.7385037 153.38925,37.7003491 154.50615,38.0684289 C155.37735,38.3557107 155.466,38.3539152 155.466,38.0468828 C155.466,37.5486284 153.7344,36.9341147 152.6706,37.0548628 C152.6247,37.0598005 152.33355,37.0934663 152.02395,37.1293766 M151.8489,38.9563092 C151.371,39.041596 150.88185,39.342793 150.71535,39.6534165 C150.50295,40.0493267 150.67395,40.0681796 151.821,39.7768579 L152.8767,39.5084289 L153.33255,39.6516209 C154.1178,39.8985037 154.71495,39.8522693 154.71495,39.5438903 C154.71495,39.1394514 152.901,38.7673317 151.8489,38.9563092 M24.3009,39.6691272 C24.804,39.8401496 25.36875,40.323591 25.36875,40.5834913 C25.36875,40.8115212 25.3314,40.8245387 23.70375,41.1661347 C23.1327,41.285985 22.37175,41.4763092 22.01265,41.5894264 C21.3723,41.7914214 21.19545,41.7923192 21.1963466,41.594813 C21.2022,40.3877805 23.04765,39.2431421 24.3009,39.6691272 M151.91955,41.1109227 C150.0651,41.9575062 150.24735,44.4577556 152.23185,45.3941147 C152.8902,45.705187 152.92755,45.819202 153.25335,48.5425436 L153.2997,48.9294763 L152.86005,48.9851372 C149.57955,49.3994514 147.07485,50.5503741 144.0216,53.0461347 L143.6472,53.3522693 L143.2251,52.9177556 C141.87645,51.5289277 141.65955,51.0939651 141.7221,49.9071322 C141.8022,48.3912718 141.57495,47.8503741 140.6628,47.3893766 C139.03785,46.5679302 137.21445,47.7942643 137.3787,49.5987531 C137.4912,50.8399002 138.2616,51.4669825 139.84065,51.6038903 C141.10515,51.7134165 141.48855,51.9508728 142.58565,53.3033416 C143.21565,54.080798 143.2071,54.0143641 142.75035,54.5512219 C139.72815,58.1040898 138.84885,64.2810973 140.7006,68.9413466 C142.5078,73.4884788 145.8981,76.3294264 151.5438,78.0275312 C152.44515,78.2986534 152.5572,78.3821446 152.9334,79.0612968 C153.34155,79.798803 153.7029,80.327581 153.7992,80.327581 C154.11915,80.327581 167.1003,74.1213965 167.3424,73.8529676 C167.49,73.6891272 167.4837,73.6586035 167.10975,72.7038404 L166.725,71.7234913 L167.4279,70.178005 C168.5007,67.8173566 168.70545,67.0744638 168.81435,65.1456359 C169.10955,59.9148628 167.94585,56.593616 164.66715,53.3078304 C162.04995,50.6854863 159.7653,49.6198504 155.29905,48.9375561 C154.6335,48.8361097 154.0755,48.7427431 154.0593,48.7297257 C154.0431,48.7167082 153.92565,48.0204988 153.79875,47.181995 L153.5679,45.657606 L154.143,45.0614963 C155.1024,44.066783 155.34765,43.0756608 154.8639,42.1469327 C154.3617,41.1822943 152.89335,40.6656359 151.91955,41.1109227 M27.7362,41.6217456 C36.2511,42.325586 41.95035,50.8587531 39.303,58.9399002 C37.58625,64.1805486 32.30415,67.9488778 26.66205,67.9578726 C18.01215,67.9722195 11.53395,58.9874813 14.26815,50.7689776 C16.06815,45.3586534 20.5083,42.0445885 26.6202,41.5499252 C26.68905,41.5445387 27.19125,41.5768579 27.7362,41.6217456 M137.1699,41.6343142 C135.27,42.0396509 132.63885,44.5713217 131.9373,46.6689277 C131.33385,48.4738653 131.84325,48.9644888 132.52995,47.2394514 C133.4304,44.9771072 134.2242,44.0847382 136.59885,42.6631421 C138.02535,41.8093766 138.25035,41.4040399 137.1699,41.6343142 M153.69345,42.0068828 C154.75725,42.8507731 154.4544,44.2382544 153.1233,44.6189027 C152.37765,44.8321197 151.3755,44.0869825 151.378643,43.3220948 C151.3845,41.9992519 152.72415,41.2379551 153.69345,42.0068828 M137.0655,43.8513217 C135.4185,44.5618953 133.87365,46.3246384 133.8264,47.5460349 C133.7895,48.4985536 134.1648,48.3167581 134.7867,47.0814464 C135.2799,46.101995 135.7569,45.5687282 136.7622,44.8720698 C137.80125,44.1520698 137.87955,44.0820449 137.84535,43.9029426 C137.80485,43.6901746 137.48715,43.6690773 137.0655,43.8513217 M28.49805,45.2087282 C27.2106,45.393217 26.4762,46.0036908 22.4514,50.2361596 C17.39385,55.5544638 17.406,55.5374065 17.4050982,57.3531172 C17.40375,59.1436908 18.16875,60.4378055 19.7253,61.2803491 L20.2365,61.5568579 L21.6549,61.5546135 C23.59755,61.5514713 23.3838,61.6731172 25.9299,59.1225935 C30.0357,55.0104239 32.77845,52.0644389 33.1704,51.3457855 C33.4557,50.8232918 33.5511,49.5933666 33.38775,48.5443392 C33.06915,46.4974564 30.71385,44.8913716 28.49805,45.2087282 M137.3157,45.6908229 C136.4319,46.1980549 135.63945,47.2937656 135.5436,48.140798 C135.468,48.8136658 135.8415,48.7283791 136.3167,47.9652868 C136.48005,47.703591 137.0313,47.0922195 137.54205,46.6074314 C138.2211,45.962394 138.456,45.6885786 138.4173,45.587581 C138.33135,45.3649377 137.7963,45.4147631 137.3157,45.6908229 M29.83005,45.9933666 C32.1507,46.5962095 33.363,48.9303741 32.37885,50.9018454 C31.5198,52.6237406 24.47595,59.9175561 22.95135,60.6644888 C21.09465,61.5743641 18.8793,60.3713716 18.17775,58.0731172 C17.7075,56.5321197 18.70425,55.0481297 23.40765,50.2873317 C27.6642,45.9781047 28.25415,45.58399 29.83005,45.9933666 M140.4216,48.1291272 C141.5016,49.1341646 140.99265,50.818803 139.60935,50.818803 C138.04335,50.818803 137.5578,48.7481297 138.95685,48.0371072 C139.42845,47.7974065 140.1111,47.8400499 140.4216,48.1291272 M4.0716,48.6884289 C5.33025,49.3343641 5.32125,50.774813 4.05315,51.6204988 C3.25665,52.1519701 2.4678,51.9383042 1.9458,51.0499751 C1.1169,49.6391521 2.63565,47.9518204 4.0716,48.6884289 M29.00745,49.2903741 C27.91485,50.0121696 26.62965,51.8593017 27.22005,51.8593017 C27.5166,51.8593017 29.6244,49.617606 29.6244,49.3020449 C29.6244,49.0412469 29.3913,49.0367581 29.00745,49.2903741 M156.73905,49.9138653 C161.9325,50.9274314 166.33215,54.9421945 167.76495,59.9750125 C168.7032,63.27202 167.87565,68.8820948 166.17375,70.7610973 C165.6702,71.3172569 163.9602,72.1921197 158.17815,74.8530673 C152.2188,77.5957107 152.5059,77.521197 150.41745,76.8743641 C138.89385,73.3057855 136.86705,58.1049875 147.07935,51.8373067 C150.1569,49.9488778 153.504,49.2822943 156.73905,49.9138653 M75.2256,50.2110224 C73.0026,51.6613466 72.26685,53.0721696 72.26685,55.8839401 L72.26685,56.8750623 L72.9045,58.1337157 C76.39695,65.0325187 81.91665,75.4814963 82.26495,75.853616 C82.5444,76.1521197 82.5696,76.1458354 82.76895,75.7288279 C82.9143,75.4249377 84.276,70.7660349 84.8925,68.465985 L85.0932,67.716808 L95.5575,67.6620449 C110.3067,67.584389 111.20625,67.5341147 112.73985,66.6983042 C116.775,64.498803 118.6119,59.7285786 117.11475,55.337207 C116.5167,53.5834414 114.3729,51.3309726 112.2129,50.1872319 L111.44655,49.7814464 L93.66795,49.7796509 L75.88935,49.7783042 L75.2256,50.2110224 M13.4046,50.4650873 C13.3425,51.057606 12.80295,53.7535661 12.6837,54.0664339 C12.4974,54.5557107 11.7567,54.0152618 11.49165,53.1965087 C11.0655,51.880399 11.52,50.7469825 12.71115,50.1549127 C13.39785,49.8137656 13.4694,49.8456359 13.4046,50.4650873 M36.68985,50.3331172 C36.5877,50.4350125 36.63225,50.7582045 36.88155,51.7232918 C38.93265,59.6581047 32.2443,66.7189526 24.2919,65.013217 C23.06925,64.7510723 22.64985,64.8327681 23.0454,65.2560599 C23.71185,65.9697756 27.3771,66.1991521 29.58255,65.6658853 C32.778,64.8933666 35.41365,62.6642394 37.1772,59.2433416 L37.7865,58.0605486 L37.82205,56.2295761 C37.89675,52.398404 37.6839,50.7882793 37.05345,50.4166085 C36.7875,50.2599501 36.7677,50.2554613 36.68985,50.3331172 M111.38175,50.7815461 C118.3824,53.7778055 118.81125,62.7526683 112.1139,66.1143142 C110.75895,66.7943641 110.538,66.8073815 98.0946,66.9227431 C86.42745,67.0313716 84.4749,67.0762594 84.41235,67.2383042 C84.3867,67.3056359 84.11805,68.2460349 83.8161,69.3282793 C82.7199,73.2550623 82.35945,74.2856858 82.1556,74.0742643 C81.96165,73.8731671 80.9424,71.9905736 78.69195,67.6750623 C77.4864,65.3628928 76.15305,62.8159601 75.7296,62.0147132 C74.4597,59.6136658 73.287,57.2359601 73.09575,56.674414 C72.4059,54.6490773 73.7586,51.8211471 75.9258,50.7568579 L76.4775,50.4857357 L82.2375,50.4395012 C85.4055,50.4139152 93.0375,50.3856359 99.198,50.3771072 L110.39895,50.3609476 L111.38175,50.7815461 M154.79595,51.414015 C154.1457,51.8480798 153.95445,52.2282793 154.33785,52.3243392 C154.5777,52.3840399 155.2428,52.0361596 155.38095,51.7789526 C155.6271,51.3201995 155.27025,51.098005 154.79595,51.414015 M151.57845,52.9433416 C150.7572,53.3486783 150.57315,53.9636409 151.3143,53.8249377 C151.587,53.7737656 152.29485,53.2557606 152.29485,53.107182 C152.29485,52.805985 151.9956,52.7373067 151.57845,52.9433416 M148.26915,54.5579551 C147.6099,54.7927182 147.33225,55.1379052 147.59325,55.3982544 C147.7647,55.5692768 147.85335,55.5549127 148.3308,55.2801995 C149.3478,54.6948628 149.3046,54.1894264 148.26915,54.5579551 M159.31305,54.7496259 C158.06205,54.9852868 146.4075,60.4270324 144.5247,61.6547132 C141.69375,63.5009476 141.99615,67.9551621 145.05525,69.4620449 C147.1167,70.4778554 147.7116,70.321197 155.169,66.8033416 C163.1628,63.0323192 164.1492,62.4020948 164.66265,60.7349626 C165.72195,57.2947631 162.85185,54.0830424 159.31305,54.7496259 M34.6419,55.043192 C34.5942,55.1917706 34.45695,55.763192 34.3359,56.3126185 C33.6204,59.5656359 31.7592,61.427581 28.34055,62.3114214 C27.04275,62.6467332 26.6517,62.9762095 27.3456,63.1499252 C28.8396,63.5238404 32.03325,61.9168579 33.57045,60.0167581 C34.8507,58.4344638 35.7345,54.7725187 34.8363,54.7725187 C34.77645,54.7725187 34.68915,54.8946135 34.6419,55.043192 M22.9176,55.6137157 C21.80565,56.7561097 21.19005,57.7081796 21.4893,57.8230923 C21.73545,57.9173566 23.5701,55.9288279 23.7735,55.3470823 C23.9778,54.7626434 23.6457,54.8663342 22.9176,55.6137157 M160.93755,55.4453865 C163.8729,55.9804489 165.19185,59.961995 163.06515,61.8692768 C162.03465,62.7935162 150.70185,68.1620948 147.69585,69.1500748 L147.02625,69.3700249 L146.385,69.1837406 C144.41085,68.6100748 142.9299,66.4864339 143.3232,64.7932668 C143.81775,62.6669327 144.2043,62.4074813 152.87355,58.3779052 C157.49595,56.2295761 159.2028,55.520798 160.0137,55.4135162 C160.1514,55.3951122 160.3044,55.3744638 160.35345,55.3677307 C160.40205,55.3609975 160.66485,55.39601 160.93755,55.4453865 M144.81495,56.097606 C144.10665,56.5285287 144.11475,57.2503242 144.82395,56.913217 C145.2249,56.7224439 145.70235,56.2780549 145.70235,56.0958105 C145.70235,55.8799002 145.1709,55.8812469 144.81495,56.097606 M157.8483,59.1239401 C156.88935,59.6657357 156.49875,61.2570075 157.13415,62.0326683 C157.3821,62.335212 157.4901,62.1233416 157.5576,61.2049377 C157.6314,60.2016958 157.65435,60.1451372 158.09085,59.8897257 C158.57415,59.6069327 158.87025,59.6262344 159.3576,59.9709726 C159.5808,60.1289776 159.90345,60.3583541 160.07445,60.4804489 C160.84665,61.0316708 160.8309,60.2313217 160.05555,59.539601 C159.3909,58.9466334 158.4693,58.7729177 157.8483,59.1239401 M148.73445,63.4197007 C147.6306,63.9345636 147.177,65.1438404 147.70215,66.1708728 C147.9843,66.7225436 148.08825,66.5762095 148.28265,65.3552618 C148.46445,64.2083791 149.2722,63.6971072 150.0084,64.2622444 C150.1875,64.399601 150.48045,64.6244888 150.6591,64.7618454 C151.3314,65.2771571 151.6293,64.9378055 151.1055,64.2532668 C150.4368,63.3788529 149.51655,63.055212 148.73445,63.4197007 M160.2549,68.5674314 C157.9356,70.1842893 156.62565,70.8216958 154.8891,71.1781047 C154.0476,71.3509227 153.8802,71.434414 153.8802,71.6826434 C153.8802,72.073616 154.87425,72.0511721 156.34035,71.6274314 C158.38785,71.0353616 161.5077,68.8753616 160.92675,68.4520698 C160.71255,68.2954115 160.623,68.3106733 160.2549,68.5674314 M55.91115,72.0902244 C55.11825,72.2545137 53.99145,72.9929177 53.99145,73.34798 C53.99145,73.4727681 54.54315,73.3807481 55.5921,73.0808978 C57.0978,72.6508728 58.05135,72.499601 58.69035,72.5898254 C59.91705,72.7630923 61.09875,73.1190524 61.8912,73.5531172 C62.45505,73.862394 62.6796,73.8996509 62.8371,73.7102244 C63.13905,73.3475312 61.8912,72.4865835 60.6636,72.2105237 C59.9382,72.047581 56.5317,71.9613965 55.91115,72.0902244 M166.1742,72.6486284 C166.36815,72.9579052 166.5891,73.5055362 166.54005,73.5544638 C166.35825,73.7358105 154.3437,79.2453367 154.12995,79.2453367 C154.0224,79.2453367 153.46305,78.4957107 153.46305,78.3511721 C153.46305,77.932818 155.50965,76.8887282 162.5175,73.7317706 C165.84885,72.2307232 165.9024,72.2150125 166.1742,72.6486284 M56.5434,74.0379052 C56.00655,74.1523691 55.49355,74.5814963 55.49355,74.9159102 C55.49355,75.1466334 55.6047,75.133616 56.9403,74.7493766 C58.3551,74.3426933 58.2939,74.3426933 59.5611,74.7538653 C60.76935,75.1457357 61.18785,75.2004988 61.2351,74.97202 C61.3962,74.1936658 58.5054,73.6182045 56.5434,74.0379052 M57.66345,75.6695761 C56.81025,75.7714713 56.2446,76.0708728 56.2446,76.4209975 C56.2446,76.6499252 56.4093,76.6575561 57.3048,76.4717207 C58.1382,76.2984539 58.158,76.298005 58.9284,76.4479302 C59.8626,76.6297257 60.20865,76.6104239 60.20865,76.3770075 C60.20865,75.8899751 58.88925,75.5232419 57.66345,75.6695761 M42.32205,77.300798 C39.83625,77.9355112 36.71775,81.2392519 36.71775,83.2385536 C36.71775,83.9163591 37.2051,83.4522195 37.82655,82.1836908 C38.7225,80.3540648 39.58965,79.5097257 41.697,78.4167082 C43.31655,77.5768579 43.66305,76.9587531 42.32205,77.300798 M57.20085,77.9440399 C55.5129,78.7282294 55.58085,81.0570075 57.32145,82.0710224 C58.03245,82.4853367 58.0887,82.6110224 58.14315,83.9177057 C58.212,85.562394 58.4037,85.4052868 55.57725,86.018005 C53.10945,86.5530673 51.5493,87.1913716 49.5702,88.475611 C48.3291,89.2804489 48.42045,89.2701247 47.84625,88.6726683 C46.63575,87.4131172 46.3068,86.8107232 46.55295,86.3034913 C47.7018,83.9356608 44.86815,81.7846384 42.9903,83.5994514 C41.34825,85.1857855 42.3342,87.1976559 44.80515,87.3026933 L45.77175,87.34399 L46.7793,88.6452868 L47.7864,89.9470324 L47.08755,90.8600499 C44.50725,94.2311222 43.64415,96.5917706 43.64415,100.275262 C43.64415,106.895761 47.0232,111.633666 53.64135,114.293267 C54.93555,114.813067 55.27395,115.068479 55.70685,115.851322 C56.22435,116.787681 56.3949,116.978005 56.66805,116.923691 C57.36285,116.784988 68.0544,112.758554 69.40845,112.125636 C70.55595,111.589227 70.63695,111.393516 70.2225,110.161796 C69.94665,109.342145 69.95115,109.304888 70.40295,108.651322 C72.03375,106.291571 72.7182,103.888279 72.719553,100.513616 C72.7209,96.9715212 72.2601,95.17601 70.7427,92.814015 C68.3802,89.1363591 65.34405,87.0064339 61.00155,85.9807481 C58.8942,85.4829426 59.03055,85.6243392 58.90005,83.8041397 L58.8123,82.5742145 L59.38515,81.9480299 C60.23205,81.0233416 60.5007,80.5587531 60.5007,80.0200998 C60.5007,78.2941646 58.77945,77.2110224 57.20085,77.9440399 M58.91085,78.6703242 C59.8383,79.1905736 59.98635,80.2234414 59.2344,80.9304239 C58.43475,81.6818454 57.57165,81.5880299 56.99115,80.6866833 C56.1843,79.4338653 57.6072,77.9395511 58.91085,78.6703242 M41.9481,79.5739152 C40.6467,79.993616 38.8872,82.0584539 38.8872,83.1653865 C38.8872,83.7377057 39.36195,83.4585037 39.78675,82.6361596 C39.98565,82.2510224 40.2696,81.8950623 40.7133,81.4749127 C41.3541,80.867581 41.49225,80.7643392 42.62805,80.0443392 C42.9642,79.8315711 43.22385,79.6111721 43.2054,79.5555112 C43.15185,79.3934663 42.47685,79.4033416 41.9481,79.5739152 M108.6975,80.1821446 C108.79425,80.4941147 108.98685,80.834813 109.4859,81.5763591 C110.4696,83.038803 110.484,83.1303741 109.89765,84.2157606 C108.8703,86.1163092 108.91935,86.1813965 110.9457,85.6131172 C111.6801,85.4075312 112.48515,85.2145137 112.73445,85.18399 L113.18805,85.1292269 L113.0265,85.3837406 C112.93785,85.5237905 112.75965,85.8079302 112.63095,86.0157606 L112.39695,86.392818 L112.5603,86.7106234 C112.64985,86.8856858 113.1273,87.6092768 113.62095,88.3189526 C114.7149,89.8904738 114.993,90.3357606 114.993,90.5130673 C114.993,90.683192 115.2243,90.7231421 113.1489,90.1961596 C105.6078,88.2825935 103.7934,88.7135162 102.4812,92.7305237 C101.7153,95.0750125 100.3734,101.001995 100.25775,102.552868 C100.0926,104.756858 101.15415,106.205387 103.48425,106.956359 C106.00875,107.770175 131.55705,114.211571 134.8956,114.87591 C138.5334,115.599501 140.33745,114.525786 141.40575,111.002095 C142.38765,107.762544 143.5572,102.51202 143.5671,101.297357 L143.5743,100.416209 L143.1819,99.6324688 C142.15815,97.5896259 141.88005,97.4298254 137.1906,96.1927182 C134.0073,95.352419 133.49565,95.2006983 133.4574,95.0853367 C133.41555,94.9600998 133.83765,94.6952618 135.39645,93.8684289 C136.08495,93.5030424 136.8441,93.0801995 137.08305,92.9289277 L137.5182,92.6533167 L137.54205,91.8386035 L137.5659,91.0243392 L138.4425,91.8457855 C140.96925,94.2149626 141.08985,94.1759102 140.7303,91.1073815 L140.6817,90.6912718 L141.71085,90.1571072 C143.0541,89.4595511 143.71785,89.0133666 143.68095,88.8324688 C143.6103,88.4845885 142.85925,88.7184539 140.499,89.8226933 L139.9275,90.0906733 L139.98015,90.6405486 C140.0094,90.9430923 140.0508,91.3219451 140.07285,91.4821945 C140.1768,92.2376559 139.89285,92.1029925 138.33855,90.657606 C137.03355,89.4438404 136.6344,89.1242394 136.51515,89.1978554 C136.37025,89.2867332 136.4787,90.5184539 136.71675,91.4956608 L136.91295,92.3000499 L134.33175,93.5640898 L131.75055,94.8285786 L128.358,93.9837905 C121.00185,92.152818 117.6813,91.2631421 116.8632,90.9040399 C116.2593,90.6387531 113.40765,86.9507731 113.40765,86.4354613 C113.40765,86.3488279 113.61285,86.0162095 113.8635,85.6961596 C115.5537,83.538404 115.44165,83.4055362 112.64625,84.2476309 C112.032,84.4321197 111.35115,84.6049377 111.1329,84.6314214 L110.73645,84.6794514 L110.85255,84.3513217 C110.91645,84.1708728 111.08745,83.78798 111.23325,83.5002494 L111.49785,82.9773067 L111.03435,82.362793 C109.8126,80.7441397 108.4896,79.5092768 108.6975,80.1821446 M42.6537,81.286384 C41.65245,81.727182 40.43655,83.2529177 40.59225,83.872818 C40.70025,84.3010474 41.0139,84.1232918 41.5566,83.3256359 C41.88105,82.8493766 42.3369,82.4121696 43.0596,81.8838404 C43.73415,81.3914214 43.4304,80.9443392 42.6537,81.286384 M44.92215,83.666783 C45.1845,83.8005486 45.8901,84.4931671 46.026,84.7503741 C46.28475,85.2405486 45.5877,86.3793516 44.8623,86.6518204 C43.8705,87.0239401 42.6996,85.4802494 43.191,84.4473815 C43.4718,83.8571072 44.4393,83.420798 44.92215,83.666783 M60.61455,86.7456359 C69.61995,88.6116209 74.45475,97.5649377 70.93305,105.854364 C70.1055,107.802494 69.39135,108.632918 67.96935,109.29995 C66.65895,109.914913 59.9679,112.431771 56.56545,113.589875 L55.25865,114.034713 L54.4374,113.75596 C51.3279,112.701995 49.815,111.675411 47.5101,109.055312 C44.1603,105.247481 43.38,99.2800998 45.61515,94.5619451 C48.30345,88.886783 54.74565,85.5296259 60.61455,86.7456359 M59.41665,88.3683292 C59.256,88.4374564 59.04,88.5739152 58.9365,88.6708728 C58.3308,89.2382544 59.4018,89.3150125 60.07725,88.7521197 C60.59745,88.3185037 60.1425,88.0541147 59.41665,88.3683292 M0,89.4101746 C0,89.900798 0.0072,89.9174065 0.18765,89.8599501 C0.5481,89.7454863 2.49255,89.7154115 3.47445,89.8096758 C11.93715,90.6185536 17.63055,96.1774564 16.3206,102.352668 C15.8508,104.568778 14.3883,106.548329 11.66985,108.649077 L10.62135,109.458853 L10.5147,110.646584 C10.45575,111.30015 10.3095,112.974015 10.1898,114.366434 C10.04175,116.084289 9.9396,116.908878 9.8721,116.931322 C9.73305,116.978005 9.11475,116.071721 7.4583,113.394613 C6.21495,111.384539 6.0039,111.086484 5.8311,111.094564 C5.7222,111.099501 5.14845,111.146633 4.5567,111.198703 C2.24865,111.402045 0.37035,111.301945 0.2277,110.968429 C0.16605,110.824788 0.1179,109.270773 0.08415,106.340499 C0.0558,103.913865 0.02565,119.449975 0.01665,140.864589 L0,179.800698 L2.35755,179.790823 C3.654,179.785436 4.6026,179.757157 4.46535,179.72798 C4.0185,179.632369 4.2192,179.1 5.50485,176.970524 C7.67835,173.370973 8.34525,172.757805 8.46765,174.247631 C8.5365,175.088379 8.57295,175.222594 8.7309,175.222594 C8.91585,175.222594 9.1539,174.592369 9.21825,173.932519 C9.3879,172.187282 9.86715,171.966883 9.9675,173.587781 C10.11465,175.969526 10.71855,175.956509 10.9215,173.567581 C11.0394,172.175611 11.42595,171.936359 11.59965,173.14788 C11.82015,174.688429 11.86155,174.922294 11.9385,175.065935 C12.17295,175.503142 12.33225,175.119352 12.4236,173.897955 C12.573,171.895511 13.1472,172.048579 13.43115,174.166384 C13.5954,175.389127 13.9428,175.390025 14.06475,174.168628 C14.16465,173.172569 14.22405,173.120948 14.7015,173.6201 C15.5484,174.505736 18.35865,179.041646 18.35865,179.522394 C18.35865,179.646733 18.2979,179.717656 18.171,179.741895 C18.06795,179.762095 18.3348,179.783192 18.7641,179.789476 C19.4274,179.799352 19.53765,179.781845 19.4967,179.67591 C19.24335,179.016509 16.84845,175.184439 16.06365,174.182095 C14.5035,172.189526 13.5243,171.684539 11.2239,171.685436 C8.26245,171.686783 7.1325,172.679252 3.8412,178.166334 L2.89935,179.736958 L1.88775,179.701047 C0.2115,179.642244 -0.0126,179.404339 0.19125,177.903292 C0.27585,177.278903 0.2862,176.940898 0.2268,176.72813 C0.12285,176.355112 0.04095,152.864439 0.12645,147.868878 L0.1863,144.363591 L1.15695,144.316459 C3.03525,144.224439 3.71385,143.62384 3.71295,142.054115 C3.71205,140.388778 2.8044,139.549377 1.01565,139.558803 L0.0702,139.563741 L0.09765,125.85187 C0.11295,118.310274 0.144,112.121147 0.16695,112.098254 C0.1899,112.07581 1.41165,112.029576 2.8818,111.996359 L5.5548,111.936209 L6.8373,114.007781 C9.1458,117.73616 9.936,118.868229 10.2294,118.868229 C10.52325,118.868229 10.67085,117.873067 10.88955,114.414913 C11.1744,109.908628 11.0529,110.25606 12.89835,108.671072 C15.6789,106.28394 16.93395,104.209227 17.2017,101.558155 C17.60895,97.5285786 15.77475,94.2499751 11.59965,91.542793 C8.8542,89.7625436 6.79815,89.2660848 0.85545,88.9464838 L0,88.9006983 L0,89.4101746 M178.41465,89.4824439 C170.43345,91.8269327 166.5369,97.0828429 168.22935,103.220349 C169.26345,106.969825 173.44395,110.342244 178.59555,111.582494 C179.9847,111.916908 179.8632,111.823092 179.9235,112.610873 C179.96625,113.169277 179.9739,113.112718 179.98605,112.163342 L180,111.077506 L179.41005,110.976509 C176.6844,110.510574 173.349,108.826833 171.56835,107.017855 C165.94605,101.307232 168.6447,93.5910224 177.2928,90.6508728 C178.32375,90.3002993 179.5257,89.9838404 179.8263,89.9838404 C179.8731,89.9838404 179.92215,90.2859352 179.9379,90.6706234 C179.95725,91.1477805 179.9712,91.0081796 179.9829,90.2127681 C179.99595,89.3410474 179.97525,89.0690274 179.8956,89.0730231 C179.83845,89.0757606 179.17155,89.2598005 178.41465,89.4824439 M55.77525,89.7409975 C55.3239,89.8716209 55.1871,90.2967082 55.55115,90.4358603 C55.73835,90.5076808 56.5173,90.2693267 56.75625,90.0673317 C57.13605,89.7468329 56.49435,89.5331671 55.77525,89.7409975 M107.81865,89.8213466 C108.72225,89.9335661 112.98285,90.947581 113.11875,91.0826933 C113.13405,91.098404 113.2038,91.3829925 113.2731,91.7147132 C113.88915,94.6606983 116.6913,95.4713716 118.81305,93.3176559 L119.5056,92.6147132 L120.483,92.8512718 C121.57965,93.1170075 123.32745,93.6080798 123.38685,93.6673317 C123.435,93.7153616 122.904,96.2515212 122.33655,98.6821945 C121.3353,102.972569 121.1823,104.274763 121.76415,103.558354 C121.9968,103.271521 123.47865,97.6951122 124.09605,94.7823441 L124.2873,93.8787531 L124.67565,93.9299252 C125.28945,94.0111721 127.8441,94.713217 128.12895,94.878404 C128.3355,94.9987032 128.4318,95.1589526 128.6145,95.6845885 C129.61485,98.5636908 132.09525,99.1714713 134.2854,97.0747631 L134.9793,96.4108728 L136.56465,96.8072319 C142.39215,98.2647382 143.43075,99.374813 142.5726,103.227531 C142.07355,105.468778 141.30855,108.250474 141.057,108.737955 C140.91885,109.006833 141.02955,109.010873 138.95865,108.663441 C135.0648,108.010324 132.80085,109.085835 131.50845,112.202394 C131.19345,112.961446 131.13405,113.041347 130.8861,113.041347 C130.57965,113.041347 129.0114,112.666983 119.7495,110.381297 C114.9534,109.197606 110.4849,108.099202 109.81935,107.940299 L108.6093,107.651222 L108.56475,105.747082 C108.5166,103.662943 108.51345,103.647232 107.94015,102.753516 C107.04555,101.358404 105.7293,100.458404 103.81095,99.9305237 C101.97675,99.4255362 101.64105,99.3061347 101.641948,99.1584539 C101.64285,98.9479302 102.7476,94.6826933 103.1013,93.5214464 C104.0517,90.4044389 105.2073,89.4981546 107.81865,89.8213466 M52.5402,90.9466833 C52.11135,91.1033416 51.98895,91.2133167 51.98895,91.4417955 C51.98895,91.9153616 52.90245,91.8143641 53.397,91.2860349 C53.79615,90.8600499 53.307,90.6661347 52.5402,90.9466833 M116.1612,91.7847382 C118.63125,92.3902743 118.8891,92.6982045 117.50535,93.3921696 C116.08065,94.106783 114.9507,93.7023441 114.20595,92.2116209 C113.733,91.2644888 113.8941,91.2290274 116.1612,91.7847382 M63.4653,92.0316209 C62.14095,92.3247382 56.5722,94.3684788 50.42115,96.8189027 C47.5668,97.9559102 46.3788,99.2818953 46.3642666,101.346284 C46.34415,104.344788 48.6315,106.61207 51.291,106.228279 C53.07615,105.971072 65.39175,101.357057 66.87,100.39197 C69.4674,98.6965586 69.8382,95.3856359 67.67325,93.2260848 C66.4632,92.0190524 65.17485,91.653217 63.4653,92.0316209 M49.33845,92.2179052 C48.5748,92.527182 48.41955,92.9186035 49.04235,92.9639401 C49.66515,93.0092768 50.4027,92.4894763 50.14845,92.1842394 C50.01975,92.0293766 49.77945,92.0392519 49.33845,92.2179052 M65.12265,92.7287282 C68.67405,93.3086783 69.48585,98.0052868 66.34215,99.7828429 C64.8495,100.627182 53.52435,104.895561 51.1479,105.510075 C50.3721,105.710274 48.63465,104.980848 48.042,104.206085 C46.84275,102.637257 46.81665,100.704389 47.9754,99.2437406 C48.67065,98.3670823 49.4721,98.0147132 58.58145,94.5785536 C63.6732,92.6582544 64.0458,92.5527681 65.12265,92.7287282 M108.2754,95.256808 C106.7859,95.9386534 106.4592,98.0739651 107.69985,99.0175062 C108.1854,99.3869327 115.6392,101.471072 116.47395,101.471072 C117.5463,101.470623 118.62495,100.297257 118.61734,99.1400499 C118.6074,97.6327182 118.1862,97.3719202 114.0579,96.314813 C110.04345,95.2868828 108.7335,95.047182 108.2754,95.256808 M131.121,95.5216459 C133.93485,96.2223441 134.3151,96.6770574 132.6186,97.3104239 C131.21055,97.8365087 129.67605,96.9737656 129.29805,95.4435411 L129.2382,95.201596 L129.75255,95.2550125 C130.03515,95.2846384 130.6512,95.4044888 131.121,95.5216459 M62.2188,96.1864339 C61.13205,96.6002993 60.5466,98.0609476 61.119,98.9322195 C61.2252,99.0938155 61.5681,99.2302743 61.5897,99.1194015 C61.59195,99.1077307 61.623,98.7338155 61.659,98.2880798 C61.77645,96.8382045 62.6778,96.4149127 63.7245,97.3185037 C64.48815,97.9774564 64.7568,98.0425436 64.7568,97.5676309 C64.7568,96.674813 63.1845,95.818803 62.2188,96.1864339 M110.26485,96.2313217 C112.7808,96.7394514 116.42805,97.7283292 117.16965,98.1031421 C118.197,98.6224938 118.1313,100.189526 117.06975,100.474564 C116.47665,100.633915 115.10595,100.384788 112.01895,99.5557107 C108.11925,98.5089277 107.64945,98.2665337 107.64945,97.3018953 C107.64945,96.182394 108.4338,95.8614464 110.26485,96.2313217 M110.63295,97.6053367 C110.3625,97.8818454 111.00105,98.2050374 112.67595,98.64 C114.30315,99.0628429 114.7842,99.1009975 114.7842,98.8074314 C114.7842,98.3634913 110.9709,97.2597007 110.63295,97.6053367 M52.65585,99.8838404 C51.79005,100.146434 51.32115,100.753766 51.3215997,101.612469 C51.3215997,102.668229 51.90705,103.123392 51.99615,102.136758 C52.0578,101.451771 52.36155,100.734464 52.63335,100.631222 C53.2071,100.413965 54.15975,100.778903 54.45045,101.32788 C54.65025,101.70404 55.0134,101.746683 55.06245,101.40015 C55.19925,100.436858 53.77995,99.5426933 52.65585,99.8838404 M127.42695,100.048579 C126.45135,100.25192 125.9244,100.935561 125.925299,101.996708 C125.92665,103.655312 126.3753,103.934065 130.8483,105.051771 C135.2907,106.161845 136.4328,106.202244 137.14155,105.275312 C137.8602,104.335362 137.76165,103.071322 136.91205,102.33606 C136.008,101.553666 128.68155,99.7864339 127.42695,100.048579 M102.9942,100.509127 C104.45715,100.93197 106.038,101.708529 106.59825,102.279052 C107.78535,103.488778 108.36045,106.81182 107.4537,107.22389 C107.11215,107.379202 103.7358,106.381347 102.6999,105.818903 C101.17935,104.993416 100.5156,102.810075 101.2221,100.956658 C101.53665,100.129825 101.6145,100.110075 102.9942,100.509127 M129.3219,100.93197 C133.18785,101.765536 135.981,102.6 136.503,103.077157 C137.18025,103.69616 136.60335,105.229077 135.6462,105.353865 C135.05805,105.430623 128.43585,103.688978 127.4202,103.190723 C126.55755,102.766983 126.37935,102.127332 126.9009,101.324738 C127.3338,100.658603 127.7451,100.591721 129.3219,100.93197 M129.7845,102.277706 C129.0132,102.570374 131.193,103.466334 133.191,103.678204 C134.01405,103.765287 134.0802,103.434913 133.3098,103.083441 C132.52905,102.726584 130.07745,102.166384 129.7845,102.277706 M114.54255,104.953466 C114.2766,105.382594 116.79885,106.960848 118.95705,107.714963 C121.2624,108.520698 126.801,108.875312 126.801,108.216808 C126.801,108.03995 126.44235,107.984738 124.3395,107.838853 C120.73365,107.588379 119.91285,107.372918 116.7453,105.843591 C114.83505,104.921596 114.6168,104.833616 114.54255,104.953466 M64.11015,105.552269 C64.00755,105.593566 63.63405,105.822045 63.28035,106.05995 C61.9524,106.953666 59.8122,107.80384 58.464,107.973067 C57.3264,108.11581 57.27375,108.128379 57.12075,108.296708 C56.5632,108.911222 58.6665,108.903591 60.5286,108.28414 C62.6301,107.584788 64.8891,106.05187 64.50255,105.587282 C64.3887,105.450374 64.3689,105.448579 64.11015,105.552269 M138.5676,109.33182 C140.76,109.850274 140.89095,109.950374 140.6583,110.933865 C140.22135,112.782344 139.20075,113.837656 137.32245,114.382145 L136.69245,114.564838 L135.2934,114.209776 C131.8923,113.346584 131.8464,113.309776 132.51375,111.98783 C133.7598,109.5199 135.72225,108.658953 138.5676,109.33182 M69.3108,110.051372 C69.42465,110.177057 69.4683,110.353017 69.4697351,110.69192 C69.4719,111.307332 69.44805,111.322594 67.00275,112.244589 C65.92815,112.649925 63.288,113.653616 61.1361,114.475062 C56.61585,116.2001 56.86875,116.139052 56.56635,115.5802 C56.2041,114.911372 56.187,114.740349 56.4669,114.597157 C57.05865,114.294613 68.83155,109.901895 69.1038,109.882096 C69.13125,109.8799 69.2244,109.956209 69.3108,110.051372 M30.50055,119.735012 C30.36285,119.795611 29.9925,120.113416 29.67705,120.441097 L29.1042,121.036758 L29.1636,121.909377 C29.2185,122.709726 29.20815,122.810723 29.04165,123.129875 C28.50975,124.14793 24.00165,129.827132 22.9293,130.830374 C22.40325,131.322344 22.38525,131.32818 21.20445,131.388329 C20.03715,131.447581 19.16145,132.162195 17.79795,134.168229 C16.7364,135.729426 16.8093,136.115461 18.4689,137.743541 L19.57095,138.823541 L18.62595,139.979401 C15.8706,143.350474 15.6469496,143.752668 15.6469496,145.337656 C15.6469496,147.210374 15.6294,147.19197 22.86495,152.952868 C32.5089,160.631372 32.21055,160.422195 33.6051,160.475162 C35.33895,160.541147 35.84925,160.210324 38.0691,157.583042 C40.2201,155.037007 40.0563,155.130374 41.1489,155.831072 C43.4151,157.284988 44.18865,157.08793 45.96615,154.604738 C47.01105,153.144988 47.22705,152.436658 46.9008,151.540698 C46.4868,150.403691 46.332,150.654165 51.20865,144.581297 L53.32095,141.950873 L54.19395,141.862444 C55.2096,141.7601 55.44765,141.647431 55.8072,141.100249 C56.41785,140.169277 56.3436,139.687182 55.45035,138.778204 L54.8379,138.155611 L54.3555,138.205436 C53.04105,138.340549 52.53705,138.960449 52.56,140.411671 C52.57935,141.633516 52.51455,141.736758 48.82725,146.337756 C45.72855,150.204838 45.72405,150.209327 45.1908,149.742045 C44.73315,149.341197 44.8029,149.193067 46.44765,147.081995 C47.80935,145.334065 48.02715,144.799451 47.9673,143.350025 C47.90475,141.836409 47.72565,141.602095 44.83035,139.240998 C40.75515,135.918404 34.78005,131.16389 32.5314,129.454564 L31.3074,128.524489 L29.69145,128.524489 L28.07595,128.524489 L27.1989,129.460848 C26.7165,129.975711 25.9236,130.846534 25.43715,131.39596 C23.9526,133.071621 24.0093,133.046035 23.25465,132.388878 L23.01795,132.182843 L23.75145,131.248279 C29.27835,124.206733 29.95335,123.482693 31.1067,123.357905 C32.4738,123.210224 33.1182,122.053466 32.6232,120.636359 C32.41845,120.050125 31.07655,119.480499 30.50055,119.735012 M31.28535,120.570374 C32.64705,121.272868 31.87035,123.13212 30.4884,122.477656 C29.628,122.070524 29.7531,120.99591 30.70935,120.582494 C31.0698,120.426733 31.00905,120.42808 31.28535,120.570374 M162.9315,121.617606 C161.2881,122.137406 160.83225,123.806783 161.8992,125.398504 C162.65835,126.530125 162.6804,126.715062 162.2619,128.453117 C161.7624,130.52783 161.7804,130.5 160.58655,131.070524 C159.7941,131.448928 159.53265,131.627581 158.87565,132.239401 C158.03775,133.02 157.6782,133.221546 156.9681,133.309526 C155.5911,133.480549 153.7956,133.977007 152.361,134.58389 L151.40655,134.986983 L150.87015,134.540798 C149.47245,133.378204 148.5567,133.387631 147.096,134.57985 C144.89775,136.373566 144.56835,137.640748 145.85985,139.333466 L146.36115,139.990175 L145.86975,141.161746 C144.85185,143.589726 144.6714,144.49601 144.672743,147.170424 C144.675,152.272818 146.8215,156.114763 151.308,159.049526 C153.37575,160.401995 154.3761,160.705885 157.20345,160.840998 C161.0316,161.023691 162.2619,160.823042 164.92005,159.580998 L165.65355,159.238504 L166.23495,159.737207 C167.80635,161.086534 168.7932,160.935711 170.6553,159.061197 C172.21185,157.494613 172.3095,156.8002 171.2097,155.124539 L170.6787,154.315661 L171.16605,153.078554 C171.78525,151.505686 171.999,150.760549 172.2753,149.209676 C172.56015,147.612569 172.57455,147.5798 173.32245,146.837357 C173.98845,146.175711 174.465,145.373117 174.54465,144.777007 C174.65445,143.959152 174.6324,143.972618 176.48775,143.548878 C179.6697,142.822145 179.77455,142.849975 179.9172,144.465037 C179.9496,144.831322 179.9739,143.46404 179.971405,141.426584 C179.9685,139.259401 179.9469,138.257955 179.91855,139.012519 L179.87085,140.303042 L179.47305,141.177007 C178.97085,142.279451 179.1189,142.179352 177.4548,142.547431 C174.99105,143.092369 174.7305,143.073965 173.9574,142.298753 C173.36025,141.69995 172.4931,141.223242 171.8316,141.128978 C171.37575,141.064339 171.1269,140.856958 170.5878,140.094763 C169.3728,138.375561 167.0616,136.090324 165.3705,134.934913 C164.65095,134.443392 164.52495,134.264289 164.45295,133.628678 C164.38005,132.983192 164.12085,132.561247 163.25685,131.681895 L162.47475,130.885586 L162.80955,129.434364 C163.43775,126.713267 163.56375,126.434065 164.2095,126.331272 C165.11895,126.185835 166.18905,124.833367 166.12875,123.905536 C166.0113,122.096559 164.60325,121.088828 162.9315,121.617606 M164.19195,122.240648 C165.9906,122.791421 165.73635,125.165536 163.836,125.565935 C163.2663,125.685786 162.3393,124.993616 162.14805,124.305935 C161.89515,123.396958 162.40365,122.470025 163.2843,122.233466 C163.79775,122.09611 163.7172,122.095212 164.19195,122.240648 M125.34075,122.495162 C125.226,122.514464 124.86915,122.572369 124.54785,122.62399 C123.2091,122.839451 120.2508,123.776259 112.61475,126.404439 C102.7728,129.791671 101.7972,130.192519 100.67985,131.309776 C98.34165,133.647531 98.4978,135.701596 101.61765,143.632369 C102.62295,146.188279 103.53825,147.183441 105.27795,147.613466 C107.38125,148.133267 108.99585,147.740499 119.58255,144.135112 C121.5333,143.470773 123.165,142.926733 123.2082,142.926284 C123.2514,142.925387 124.3071,143.936259 125.55405,145.172469 C126.80055,146.408678 127.87875,147.42 127.9494,147.42 C128.20455,147.42 128.27565,146.900648 128.35035,144.481646 C128.4507,141.225037 128.3787,141.394713 130.06395,140.437257 C132.89625,138.828928 133.98615,137.145187 133.69995,134.820898 C133.3305,131.823292 130.7511,124.891721 129.62205,123.861995 C128.6397,122.966933 126.5373,122.29586 125.34075,122.495162 M126.8046,123.321995 C127.93005,123.604788 129.22155,124.43611 129.6387,125.146234 C130.39605,126.434963 133.10055,134.47616 133.101451,135.441247 C133.1028,137.185137 131.15385,139.28005 128.763,140.103741 C127.71045,140.466883 127.8117,140.202494 127.6812,142.924938 C127.5759,145.127581 127.5138,145.838603 127.42785,145.838603 C127.31445,145.838603 126.1215,144.771172 124.7445,143.438005 C123.9804,142.697805 123.291,142.092718 123.21225,142.092718 C123.13305,142.092718 120.0969,143.08384 116.46495,144.295362 C106.95915,147.465337 107.16885,147.41192 105.88455,146.994464 C103.3479,146.169875 103.1913,145.925237 101.0133,139.387332 C99.48105,134.787232 99.4536,134.351372 100.59075,132.578753 C101.5074,131.149077 101.6937,131.068728 113.32395,127.068329 C121.40865,124.287531 123.38505,123.653267 125.21565,123.252868 C125.5869,123.171621 126.3357,123.20394 126.8046,123.321995 M70.3647,128.178853 C69.9975,128.830623 69.0543,131.353766 63.1548,147.461746 C57.66165,162.4601 57.8214,161.996858 58.05495,162.254514 C58.42485,162.662544 58.8159,162.812918 73.26855,168.091721 C78.7563,170.09596 80.7966,170.811022 81.0315,170.811022 C81.5796,170.811022 81.22905,170.141297 78.57675,166.118903 C76.3866,162.797207 76.4325,163.154963 77.8662,160.566733 C79.4124,157.775611 85.2309,146.879551 86.84955,143.745037 L87.5223,142.441945 L86.8365,141.830125 C86.4594,141.493915 85.07565,140.256359 83.76165,139.07985 C77.6655,133.623292 70.929,127.858354 70.64955,127.858354 C70.5924,127.858354 70.46415,128.002444 70.3647,128.178853 M72.4338,130.112618 C76.8492,133.840549 86.5368,142.47606 86.5368,142.683441 C86.5368,142.761097 84.02355,147.493167 83.11455,149.126633 C82.75815,149.767631 81.6498,151.827531 80.6517,153.704738 C79.65405,155.581945 78.5646,157.623441 78.23115,158.241546 C77.8977,158.859651 77.1903,160.205835 76.6593,161.233317 L75.69315,163.101097 L76.12155,163.813466 C76.3569,164.205337 77.0832,165.349975 77.7348,166.357257 C79.20405,168.626783 79.6302,169.320748 79.58385,169.366983 C79.5015,169.449127 59.34555,162.12793 58.9023,161.854564 C58.8258,161.807431 59.00445,161.290773 60.8589,156.201845 C65.34855,143.881496 70.64145,129.515162 70.81965,129.16818 C70.97175,128.871471 70.9479,128.857556 72.4338,130.112618 M30.2922,129.224738 C31.0518,129.385885 31.71825,129.699651 32.157,130.102743 L32.5314,130.447481 L32.121,131.234813 C31.39695,132.62409 31.78935,132.781646 32.832,131.51985 C33.33285,130.914314 33.18075,130.899052 34.1748,131.652718 C35.1657,132.40414 35.1207,132.318404 34.76655,132.781197 C33.525,134.403441 33.93225,134.81192 35.307,133.322993 L35.77365,132.817556 L36.57195,133.556409 L37.3698,134.295711 L37.1808,134.593766 C37.07685,134.758055 36.87345,135.077656 36.72945,135.30389 C36.10485,136.285137 36.53325,136.359651 37.49625,135.437207 L38.1879,134.775112 L38.7252,135.240599 C39.02085,135.496908 39.38805,135.815162 39.54105,135.94803 L39.8196,136.189975 L39.48975,136.626284 C38.529,137.894813 38.57085,138.521895 39.5568,137.64389 C40.4118,136.883042 40.7475,136.877656 41.6997,137.610224 C42.21675,138.008379 42.219,138.017805 41.89005,138.431671 C41.37975,139.074464 41.08455,140.011721 41.39235,140.011721 C41.43285,140.011721 41.77215,139.71187 42.147,139.345586 C42.9894,138.522344 42.8994,138.512918 44.0613,139.546234 C44.55045,139.981646 44.54775,139.926883 44.11305,140.534214 C43.299,141.67212 43.605,142.194165 44.5086,141.208878 C45.30645,140.338953 45.78705,140.531072 46.8009,142.125486 C47.7783,143.662893 47.6901,143.931322 45.03195,147.482843 C39.2472,155.212968 35.9109,159.197656 34.9119,159.570673 C33.35535,160.151072 32.83965,159.872768 27.0792,155.338653 C18.30375,148.431771 17.09685,147.400249 16.6032,146.382643 C15.83955,144.809327 16.1181,144.312419 21.6657,137.341347 C28.1709,129.166384 28.5102,128.847232 30.2922,129.224738 M162.35415,132.001047 C162.94455,132.301796 163.72755,133.301895 163.72755,133.755262 C163.72755,133.985536 163.42785,134.034464 162.8928,133.891721 C162.64035,133.824389 161.83845,133.639451 161.11035,133.480998 C159.33285,133.094065 159.1371,132.956708 159.6591,132.462494 C160.3791,131.780648 161.5338,131.583142 162.35415,132.001047 M21.82185,132.40414 C22.57605,132.855711 23.44905,133.520499 23.44905,133.642594 C23.44905,134.025486 20.2086,137.93207 19.8918,137.930724 C19.7604,137.930274 18.5544,136.875411 18.2412,136.487132 C17.64135,135.742893 17.98965,134.844688 19.48545,133.276758 C20.6604,132.045935 21.00735,131.916209 21.82185,132.40414 M159.89085,134.105835 C165.2544,134.770623 169.41105,138.187481 171.02385,143.258005 C173.6415,151.484589 167.6412,159.907781 158.88735,160.295611 C151.53795,160.621047 145.035,154.134763 145.31265,146.75611 C145.5984,139.174115 152.49555,133.189227 159.89085,134.105835 M149.54085,134.648978 C150.7113,135.191671 150.6618,135.360898 148.7997,137.181546 C148.30785,137.662294 147.70665,138.308229 147.46365,138.617506 C146.9457,139.276908 146.82285,139.302494 146.4228,138.836559 C145.4589,137.713466 145.91925,136.392419 147.74445,135.044888 C148.62555,134.394464 148.87395,134.339701 149.54085,134.648978 M27.8982,135.469077 C26.76555,135.742893 26.72865,136.152718 27.8397,136.11591 C30.3075,136.034663 31.98195,137.310823 32.2614,139.486534 C32.36985,140.329975 32.4585,140.510873 32.76405,140.510873 C33.09795,140.510873 33.01335,138.850474 32.6268,137.81985 C32.02245,136.208828 29.67165,135.03995 27.8982,135.469077 M154.25595,137.170773 C148.8006,138.514264 149.6988,146.762394 155.29905,146.750288 C157.47705,146.745337 158.59395,146.154165 159.7266,144.405786 C160.59465,143.065885 160.56585,140.560698 159.66675,139.238304 C158.46615,137.472868 156.3354,136.659052 154.25595,137.170773 M28.43415,137.441895 C26.26065,137.929825 25.8777,140.704788 27.85455,141.640698 C29.76345,142.544289 31.74885,140.124838 30.55455,138.350873 C30.0753,137.639401 29.2086,137.267731 28.43415,137.441895 M156.4578,137.85217 C159.57045,138.56813 160.6671,142.551471 158.37975,144.833117 C156.2805,146.927132 152.9847,146.297805 151.66935,143.55202 C150.2415,140.571471 153.16245,137.094464 156.4578,137.85217 M29.36835,138.301945 C30.4209,138.845087 30.36825,140.413017 29.27835,140.975012 C28.51065,141.371372 27.24975,140.513566 27.24975,139.595162 C27.24975,138.725686 28.59615,137.903791 29.36835,138.301945 M54.82395,139.13596 C55.8441,139.886933 55.47195,141.093516 54.2196,141.093516 C53.1684,141.093516 52.95015,139.815561 53.88795,139.149875 C54.2736,138.87606 54.46665,138.872918 54.82395,139.13596 M1.91925,140.434564 C3.42585,141.11596 3.36015,142.900698 1.80495,143.541247 C0.7443,143.978005 0.08325,143.380549 0.08325,141.984988 C0.08325,140.487531 0.76455,139.912519 1.91925,140.434564 M154.87425,140.538254 C153.82305,141.09217 153.7389,142.541596 154.7181,143.218504 C155.3418,143.649875 155.8971,143.557855 156.5397,142.916409 C157.70925,141.750224 156.3246,139.773815 154.87425,140.538254 M155.97315,141.337257 C156.43935,141.801845 156.2256,142.565387 155.58435,142.726085 C155.08305,142.851771 154.62495,142.017756 154.93545,141.545087 C155.24235,141.077805 155.6343,140.999252 155.97315,141.337257 M172.46475,142.194165 C173.93715,142.878254 174.24045,144.788678 173.06685,145.986284 C172.52595,146.537955 172.4634,146.41182 172.0431,143.92414 C171.65475,141.627232 171.61335,141.798254 172.46475,142.194165 M36.1647,142.187431 C35.97525,142.230075 35.75295,142.339152 35.67015,142.430274 C35.40825,142.719352 35.6193,142.79207 36.8739,142.846833 C39.16215,142.946484 40.7232,144.421496 40.7232,146.484539 C40.7232,146.822095 40.93335,147.253466 41.09805,147.253466 C41.598,147.253466 41.45085,145.321496 40.8672,144.22399 C40.02615,142.641696 38.0178,141.772219 36.1647,142.187431 M24.8553,144.111322 C23.96655,145.018504 23.6088,146.723342 24.10785,147.669576 C24.5646,148.535461 28.30545,151.751222 29.5956,152.387282 C30.34755,152.758055 31.59045,152.777805 32.3055,152.430823 C32.8914,152.146234 33.96375,150.984988 33.96375,150.635312 C33.96375,150.265885 25.78275,143.757606 25.31835,143.757606 C25.254,143.757606 25.04565,143.916509 24.8553,144.111322 M36.39825,144.279202 C35.58645,144.538204 34.9047,145.607431 34.9929,146.483192 C35.2197,148.743741 38.30805,149.310224 39.1689,147.248978 C39.94785,145.38389 38.3391,143.659751 36.39825,144.279202 M27.43065,146.150574 C28.4796,146.963042 30.21255,148.321347 31.28175,149.16793 L33.2253,150.70803 L32.8041,151.096309 C31.90995,151.919551 31.1859,152.211771 30.59955,151.985087 C29.0781,151.397506 25.0758,148.125636 24.76035,147.211721 C24.4557,146.328778 24.92775,144.672868 25.48395,144.672868 C25.50555,144.672868 26.3817,145.338105 27.43065,146.150574 M37.6605,144.95207 C38.6838,145.378504 38.9007,146.615162 38.0889,147.394863 C37.39185,148.064589 36.4041,147.844638 35.9208,146.912319 C35.38755,145.884389 36.60525,144.51217 37.6605,144.95207 M162.30195,145.487581 C158.44005,146.520449 157.6071,151.92404 160.9434,154.298603 C162.54045,155.435611 165.4767,155.301397 166.8879,154.027481 C168.228,152.817756 168.52455,152.126035 168.525,150.206633 L168.5259,148.706484 L168.2397,148.125636 C167.1813,145.975062 164.6631,144.856459 162.30195,145.487581 M164.96055,146.226883 C167.12955,146.768678 168.46875,149.307082 167.6862,151.392569 C166.3101,155.0599 161.6535,155.362444 159.94575,151.895312 C158.40315,148.764389 161.4285,145.344389 164.96055,146.226883 M162.99945,148.842943 C162.04185,149.315611 162.01395,150.762344 162.94815,151.473367 C163.84905,152.158803 165.22965,151.380898 165.22965,150.187781 C165.22965,149.013965 164.06955,148.314165 162.99945,148.842943 M150.1902,148.969526 C149.4306,150.299551 152.28585,154.273466 154.97055,155.621895 C156.67515,156.478354 156.85245,155.745786 155.16315,154.826933 C153.25785,153.790923 152.43255,152.894514 151.16265,150.480898 C150.50295,149.226733 150.2595,148.848329 150.1902,148.969526 M164.14335,149.583591 C164.5434,149.797257 164.52585,150.590424 164.11455,150.877706 C163.4931,151.311771 162.6813,150.480449 163.1484,149.888379 C163.42695,149.535112 163.8243,149.413466 164.14335,149.583591 M44.86095,150.591322 C46.70775,151.867481 46.70865,152.399401 44.86995,154.742095 C43.75395,156.16414 43.42185,156.266484 42.18435,155.570274 C40.88745,154.840848 40.752,154.55581 41.2866,153.68005 C41.94045,152.60813 43.97445,150.250175 44.24535,150.250175 C44.3124,150.250175 44.5896,150.403691 44.86095,150.591322 M24.40305,150.509626 C24.3252,150.635312 25.6068,151.868379 26.3736,152.405686 C27.8055,153.408928 27.65295,152.486035 26.20305,151.374613 C25.27155,150.660449 24.52995,150.30404 24.40305,150.509626 M170.7156,155.655561 C171.4248,156.707731 171.1701,157.577656 169.7607,158.918454 C168.81255,159.820698 168.06105,160.021796 167.1849,159.608828 C166.27815,159.180599 166.3686,158.949426 168.1434,157.164688 C170.0532,155.244389 170.32905,155.082344 170.7156,155.655561 M142.74585,165.004788 C142.51005,165.36389 141.96555,166.618504 141.36345,168.188678 C140.81715,169.613865 137.1069,179.713167 137.1069,179.775112 C137.1069,179.789476 138.37455,179.79217 139.92345,179.781397 L142.74,179.762095 L140.4153,179.738304 L138.09105,179.714963 L138.1473,179.492319 C138.27825,178.971172 142.5645,167.288678 142.91235,166.503142 C143.2512,165.739152 143.02485,165.578005 148.995,170.841546 C155.3859,176.476309 158.59485,179.454613 158.44095,179.607681 C158.4036,179.645387 157.221,179.697007 155.81385,179.722594 C153.66195,179.762095 153.9522,179.769726 157.63545,179.77197 C160.0452,179.772868 161.54145,179.749526 160.96095,179.7199 C159.7167,179.655711 159.99255,179.816409 158.0823,178.044688 C153.84195,174.112519 144.3393,165.728828 143.4087,165.099052 C142.9155,164.765536 142.90425,164.763741 142.74585,165.004788 M95.1318,174.220249 C94.70565,174.345486 94.40955,174.553766 93.8907,175.092868 L93.3588,175.646334 L93.41775,176.473616 C93.49065,177.500648 93.37815,177.788379 92.4354,178.989127 L91.7982,179.800698 L96.74055,179.785436 L101.6829,179.769726 L97.4511,179.722145 C94.8348,179.692519 93.1887,179.642693 93.13875,179.59197 C93.04785,179.498603 93.87,178.379551 94.22325,178.116509 C94.37985,178.000249 94.65885,177.937406 95.2425,177.887581 C96.4962,177.780299 96.87105,177.442294 97.011,176.292718 C97.15005,175.155262 96.05565,173.949127 95.1318,174.220249 M26.91225,175.047082 C26.24445,175.346933 25.5375,176.15985 25.53345,176.632968 C25.53255,176.750125 25.4547,177.014514 25.3602,177.220549 C25.26615,177.426584 25.1559,177.908229 25.11585,178.291571 C25.0758,178.674464 25.0272,179.003491 25.0083,179.022793 C24.9894,179.041646 24.6069,178.672219 24.15915,178.201347 C22.2111,176.153566 21.8997,176.133815 22.4514,178.093616 C22.7817,179.267431 22.70295,179.379651 21.33675,179.67591 C20.82915,179.785885 20.844,179.787681 22.24125,179.794414 L23.66235,179.800698 L23.62995,179.460449 C23.58135,178.954564 23.72265,178.877357 24.075,179.218055 C24.381,179.513865 24.43815,179.675012 24.26265,179.745935 C24.2055,179.768828 24.54345,179.790823 25.0137,179.794414 L25.86915,179.800698 L25.87005,179.239152 C25.8705,178.929875 25.8948,178.533965 25.9236,178.358903 L25.97625,178.041097 L26.77815,178.094514 C27.99945,178.175312 28.73115,177.69995 28.84365,176.75192 C28.9665,175.71591 27.7722,174.661047 26.91225,175.047082 M175.2957,175.010723 C173.9925,175.478005 173.68335,177.156808 174.76875,177.870973 C175.0905,178.082843 175.15665,178.093616 176.0409,178.079701 L176.9742,178.065337 L177.02595,178.49581 C177.0543,178.732818 177.07815,179.123342 177.0786,179.36394 L177.0795,179.800698 L177.9345,179.794414 C178.4052,179.790823 178.74315,179.768828 178.68555,179.745935 C178.44525,179.648978 178.81065,179.051521 179.11035,179.051521 C179.27865,179.051521 179.3313,179.43217 179.19045,179.632818 C179.0766,179.795312 179.08785,179.800698 179.5365,179.800698 L180,179.800698 L179.9883,177.324239 C179.9793,175.369377 179.9622,175.012968 179.9073,175.630623 C179.7885,176.965586 179.67195,177.236259 178.8696,178.03616 C178.00965,178.893965 177.92055,178.897556 177.7824,178.080599 C177.40035,175.817357 176.42025,174.607631 175.2957,175.010723 M95.7375,175.266584 C96.35445,175.684489 96.47145,176.287781 96.0291,176.768978 C95.5206,177.322444 94.58055,177.183292 94.2588,176.507282 C93.82095,175.587082 94.8888,174.691122 95.7375,175.266584 M27.8208,176.055262 C28.23705,176.515362 28.1817,176.809377 27.5805,177.321546 C27.24165,177.610623 26.2863,177.102943 26.2863,176.633865 C26.2863,175.848329 27.29025,175.469476 27.8208,176.055262 M176.20335,176.006334 C176.6178,176.419302 176.52375,177.013167 175.9806,177.411771 C175.71015,177.610623 175.2669,177.399202 174.98475,176.937756 C174.5361,176.204289 175.5927,175.396758 176.20335,176.006334 M7.0938,179.009776 C6.5484,179.492768 6.31575,179.641796 5.98545,179.7199 C5.8374,179.754913 6.5988,179.781397 7.67745,179.778254 C9.28665,179.773317 9.47385,179.762095 8.72055,179.714065 C7.6905,179.648529 7.7607,179.659751 7.7607,179.560998 C7.7607,179.197406 13.55535,179.117955 14.481,179.468978 C14.8239,179.599152 14.6439,179.70419 14.0193,179.738753 C13.72095,179.755362 14.247,179.77197 15.18795,179.77601 C16.42005,179.780948 16.80165,179.761197 16.5528,179.705536 C16.3233,179.654364 16.00875,179.461796 15.615,179.13187 L15.02235,178.635411 L11.2689,178.635411 L7.5159,178.635411 L7.0938,179.009776" id="path0"></path>
                </g>
            </g>
        </g>
    </g>
</svg>