<svg width="2787" height="751" viewBox="0 0 2787 751" fill="none" xmlns="http://www.w3.org/2000/svg">
<path fill-rule="evenodd" clip-rule="evenodd" d="M45.2998 262L182.55 182.759L182.55 341.241L45.2998 262Z" fill="#6E5CF0"/>
<path fill-rule="evenodd" clip-rule="evenodd" d="M45.2998 422L182.55 342.759L182.55 501.241L45.2998 422Z" fill="#6340E7"/>
<path fill-rule="evenodd" clip-rule="evenodd" d="M320 261.8L182.75 341.041L182.75 182.558L320 261.8Z" fill="#6F55EC"/>
<path fill-rule="evenodd" clip-rule="evenodd" d="M183 342.8L45.75 422.041L45.75 263.558L183 342.8Z" fill="#644AE9"/>
<path fill-rule="evenodd" clip-rule="evenodd" d="M183 499.8L45.75 579.041L45.75 420.558L183 499.8Z" fill="#644AE9"/>
<path fill-rule="evenodd" clip-rule="evenodd" d="M320 579.8L182.75 659.041L182.75 500.558L320 579.8Z" fill="#522FDD"/>
<path fill-rule="evenodd" clip-rule="evenodd" d="M182.8 182.5L320.05 103.259V261.741L182.8 182.5Z" fill="#634DDD"/>
<path fill-rule="evenodd" clip-rule="evenodd" d="M319.8 261.5L457.05 182.259V340.741L319.8 261.5Z" fill="#6C53F5"/>
<path fill-rule="evenodd" clip-rule="evenodd" d="M456.8 341.5L594.05 262.259V420.741L456.8 341.5Z" fill="#4B2BF4"/>
<path fill-rule="evenodd" clip-rule="evenodd" d="M456.8 499.5L594.05 420.259V578.741L456.8 499.5Z" fill="#4F21D3"/>
<path fill-rule="evenodd" clip-rule="evenodd" d="M456.8 658.5L594.05 579.259V737.741L456.8 658.5Z" fill="#5128C7"/>
<path fill-rule="evenodd" clip-rule="evenodd" d="M319.8 579.5L457.05 500.259V658.741L319.8 579.5Z" fill="#4B25D3"/>
<path fill-rule="evenodd" clip-rule="evenodd" d="M457.35 182.5L320.1 261.741L320.1 103.259L457.35 182.5Z" fill="#634CEA"/>
<path fill-rule="evenodd" clip-rule="evenodd" d="M457.35 658.5L320.1 737.741L320.1 579.259L457.35 658.5Z" fill="#3B1FD2"/>
<path fill-rule="evenodd" clip-rule="evenodd" d="M594.35 579.5L457.1 658.741L457.1 500.259L594.35 579.5Z" fill="#3B1FD2"/>
<path fill-rule="evenodd" clip-rule="evenodd" d="M594.35 420.5L457.1 499.741L457.1 341.259L594.35 420.5Z" fill="#3B1FD2"/>
<path fill-rule="evenodd" clip-rule="evenodd" d="M594 261.8L456.75 341.041L456.75 182.558L594 261.8Z" fill="#6348ED"/>
<path fill-rule="evenodd" clip-rule="evenodd" d="M45.2998 579L182.55 499.759L182.55 658.241L45.2998 579Z" fill="#5F44EE"/>
<path fill-rule="evenodd" clip-rule="evenodd" d="M183.3 659L320.55 579.759V738.241L183.3 659Z" fill="#6244FC"/>
<path d="M45.2998 262.018L319.8 420.5L594.3 262.018" stroke="white" stroke-width="8"/>
<path d="M319.8 420.518V737.483" stroke="white" stroke-width="8"/>
<path fill-rule="evenodd" clip-rule="evenodd" d="M320.3 262L457.565 341.25V499.75L320.3 579L183.035 499.75V341.25L320.3 262Z" fill="white"/>
<path fill-rule="evenodd" clip-rule="evenodd" d="M2687.88 225.77H2721.08V320.234H2773.2V348.338H2721.08V574.777H2687.88V348.338H2643.06V320.234H2687.88V225.77" fill="#1B2442"/>
<path fill-rule="evenodd" clip-rule="evenodd" d="M2616.74 320.953V573.21H2584.46V529.855C2570.72 546.39 2555.3 558.815 2538.2 567.199C2521.1 575.508 2502.41 579.706 2482.12 579.706C2446.08 579.706 2415.33 566.727 2389.76 540.851C2364.28 514.982 2351.49 483.485 2351.49 446.374C2351.49 410.049 2364.43 379.031 2390.16 353.23C2415.88 327.443 2446.88 314.458 2483.08 314.458C2504.01 314.458 2522.94 318.895 2539.8 327.676C2556.73 336.538 2571.6 349.756 2584.46 367.323V320.953H2616.74ZM2485.63 345.797C2467.41 345.797 2450.57 350.228 2435.06 359.091C2419.64 368.035 2407.34 380.454 2398.22 396.599C2389.12 412.655 2384.57 429.675 2384.57 447.557C2384.57 465.358 2389.12 482.377 2398.31 498.592C2407.58 514.812 2419.88 527.401 2435.46 536.496C2450.96 545.522 2467.65 550.029 2485.39 550.029C2503.36 550.029 2520.39 545.522 2536.44 536.578C2552.5 527.634 2564.89 515.53 2573.52 500.178C2582.23 484.901 2586.54 467.655 2586.54 448.508C2586.54 419.308 2576.79 394.855 2557.38 375.236C2537.96 355.61 2514.08 345.797 2485.63 345.797V345.797Z" fill="#1B2442"/>
<path fill-rule="evenodd" clip-rule="evenodd" d="M2101.8 220.84H2134.07V362.787C2147.15 345.536 2161.55 332.616 2177.22 324.112C2192.88 315.603 2209.89 311.267 2228.24 311.267C2246.97 311.267 2263.58 316.073 2278.15 325.61C2292.64 335.141 2303.43 347.98 2310.27 364.046C2317.2 380.119 2320.67 405.321 2320.67 439.597V568.861H2288.39V449.047C2288.39 420.135 2287.29 400.841 2284.92 391.148C2280.91 374.53 2273.66 362.079 2263.12 353.651C2252.65 345.304 2238.79 341.05 2221.7 341.05C2202.18 341.05 2184.71 347.51 2169.27 360.431C2153.84 373.427 2143.61 389.418 2138.73 408.48C2135.66 420.767 2134.07 443.532 2134.07 476.78V568.861H2101.8V220.84" fill="#1B2442"/>
<path fill-rule="evenodd" clip-rule="evenodd" d="M2070.25 373.443L2044.27 389.428C2021.72 359.913 1991.1 345.124 1952.16 345.124C1921.14 345.124 1895.32 355.01 1874.76 374.79C1854.22 394.57 1843.99 418.623 1843.99 446.861C1843.99 465.294 1848.71 482.55 1858.14 498.85C1867.58 515.061 1880.53 527.642 1897 536.585C1913.46 545.527 1931.93 550.033 1952.4 550.033C1989.9 550.033 2020.52 535.32 2044.27 505.729L2070.25 522.658C2058.02 540.776 2041.71 554.785 2021.16 564.753C2000.62 574.722 1977.27 579.706 1951.05 579.706C1910.75 579.706 1877.33 567.044 1850.79 541.732C1824.24 516.326 1810.96 485.559 1810.96 449.24C1810.96 424.797 1817.13 402.091 1829.6 381.197C1841.99 360.234 1859.02 343.934 1880.77 332.147C1902.43 320.435 1926.74 314.5 1953.61 314.5C1970.46 314.5 1986.71 317.118 2002.45 322.178C2018.12 327.314 2031.39 333.966 2042.35 342.115C2053.31 350.341 2062.58 360.706 2070.25 373.443" fill="#1B2442"/>
<path fill-rule="evenodd" clip-rule="evenodd" d="M1716.56 320.953H1779.39V573.21H1716.56V546.548C1704.26 558.337 1691.89 566.727 1679.52 571.945C1667.06 577.088 1653.66 579.706 1639.15 579.706C1606.68 579.706 1578.61 567.042 1554.89 541.802C1531.16 516.562 1519.34 485.14 1519.34 447.557C1519.34 408.627 1530.77 376.733 1553.71 351.808C1576.64 326.964 1604.55 314.458 1637.34 314.458C1652.4 314.458 1666.59 317.391 1679.83 323.087C1693.07 328.783 1705.29 337.413 1716.56 348.806V320.953ZM1650.27 372.938C1630.72 372.938 1614.48 379.818 1601.56 393.671C1588.62 407.519 1582.17 425.244 1582.17 446.839C1582.17 468.681 1588.71 486.569 1601.87 500.649C1615.03 514.736 1631.28 521.786 1650.5 521.786C1670.37 521.786 1686.84 514.812 1699.93 500.977C1713.01 487.199 1719.56 469.083 1719.56 446.606C1719.56 424.683 1713.01 406.883 1699.93 393.35C1686.84 379.742 1670.29 372.938 1650.27 372.938V372.938Z" fill="#1B2442"/>
<path fill-rule="evenodd" clip-rule="evenodd" d="M1264.78 319.43H1328.8L1392.2 470.094L1455.27 319.43H1519.14L1412.41 574.776H1371.66L1264.78 319.43" fill="#1B2442"/>
<path fill-rule="evenodd" clip-rule="evenodd" d="M1135.52 314.458C1159.41 314.458 1181.86 320.475 1202.89 332.346C1223.84 344.211 1240.26 360.431 1252.01 380.774C1263.83 401.181 1269.69 423.185 1269.69 446.84C1269.69 470.663 1263.75 492.901 1251.92 513.628C1240.03 534.362 1223.92 550.507 1203.44 562.221C1182.97 573.852 1160.43 579.706 1135.76 579.706C1099.5 579.706 1068.55 566.809 1042.92 541.091C1017.3 515.372 1004.45 484.114 1004.45 447.318C1004.45 407.915 1018.96 375.078 1047.93 348.806C1073.31 325.938 1102.51 314.458 1135.52 314.458ZM1136.48 374.039C1116.79 374.039 1100.37 380.931 1087.28 394.615C1074.18 408.305 1067.68 425.797 1067.68 447.078C1067.68 469.083 1074.1 486.808 1087.12 500.416C1100.05 514.024 1116.4 520.822 1136.23 520.822C1156.07 520.822 1172.57 513.943 1185.75 500.177C1198.92 486.405 1205.51 468.762 1205.51 447.078C1205.51 425.482 1199.08 407.915 1186.14 394.382C1173.13 380.849 1156.63 374.039 1136.48 374.039V374.039Z" fill="#1B2442"/>
<path fill-rule="evenodd" clip-rule="evenodd" d="M760 321.034H823.095V346.98C837.502 334.805 850.486 326.365 862.199 321.661C873.842 316.894 885.793 314.5 897.984 314.5C923.077 314.5 944.298 323.339 961.784 340.928C976.513 355.813 983.798 377.859 983.798 407.154V574.777H921.175V463.585C921.175 433.258 919.828 413.118 917.145 403.171C914.45 393.225 909.696 385.659 902.971 380.41C896.24 375.231 888.01 372.61 878.117 372.61C865.209 372.61 854.202 376.909 845.021 385.583C835.84 394.181 829.423 406.115 825.866 421.323C824.046 429.282 823.095 446.478 823.095 472.905V574.777H760V321.034" fill="#1B2442"/>
</svg>
